<?xml version="1.0" encoding="utf-8"?>
<!-- Generator: Adobe Illustrator 19.1.0, SVG Export Plug-In . SVG Version: 6.00 Build 0)  -->
<svg version="1.1" id="Layer_1" xmlns="http://www.w3.org/2000/svg" xmlns:xlink="http://www.w3.org/1999/xlink" x="0px" y="0px"
	 viewBox="330 124.9 1256 592" style="enable-background:new 330 124.9 1256 592;" xml:space="preserve">
<style type="text/css">
	.st0{opacity:0.99;clip-path:url(#SVGID_2_);}
	.st1{fill:#05AA9E;}
	.st2{fill:#E4087E;}
	.st3{fill:#F7B132;}
	.st4{fill:none;}
	.st5{fill:#2BACE2;}
	.st6{fill:#FFFFFF;}
	.st7{opacity:0.1;}
	.st8{fill:#FFFFFF;stroke:#2BACE2;stroke-width:5.6693;stroke-miterlimit:10;}
	.st9{opacity:0.2;}
	.st10{fill:#FFFFFF;stroke:#2BACE2;stroke-width:2.8346;stroke-miterlimit:10;}
	.st11{opacity:0.3;}
	.st12{opacity:0.3;fill:#2BACE2;enable-background:new    ;}
	.st13{opacity:0.1;fill:#2BACE2;enable-background:new    ;}
</style>
<g>
	<g>
		<g>
			<defs>
				<rect id="SVGID_1_" x="505.9" y="138.6" width="1069.5" height="564.2"/>
			</defs>
			<clipPath id="SVGID_2_">
				<use xlink:href="#SVGID_1_"  style="overflow:visible;"/>
			</clipPath>
			<g class="st0">
				<g>
					<path class="st1" d="M1045.1,993.8c-5.4,0-10.8-0.1-16.3-0.3c-51.5-2.1-101.1-14.3-147.3-36.2c-44.7-21.1-84.3-50.3-117.9-86.9
						c-33.6-36.5-59.4-78.5-76.8-124.7c-17.9-47.9-26-98.3-23.8-149.8l0,0c2.1-51.5,14.3-101.1,36.2-147.3
						c21.1-44.7,50.3-84.3,86.9-117.9s78.5-59.4,124.7-76.8c47.9-17.9,98.3-26,149.8-23.8c51.5,2.1,101.1,14.3,147.3,36.2
						c44.7,21.1,84.3,50.3,117.9,86.9c33.6,36.5,59.4,78.5,76.8,124.7c17.9,47.9,26,98.3,23.8,149.8
						c-2.1,51.5-14.3,101.1-36.2,147.3c-21.1,44.7-50.3,84.3-86.9,117.9c-36.5,33.6-78.5,59.4-124.7,76.8
						C1135.8,985.7,1091,993.8,1045.1,993.8z M665.4,596l2.4,0.1c-2.1,50.9,5.8,100.7,23.5,148c17.1,45.7,42.6,87.1,75.8,123.2
						c33.2,36.1,72.4,64.9,116.5,85.8c45.7,21.6,94.6,33.6,145.5,35.7c50.9,2.1,100.7-5.8,148-23.5c45.7-17.1,87.1-42.6,123.2-75.8
						s64.9-72.4,85.8-116.5c21.6-45.7,33.6-94.6,35.7-145.5s-5.8-100.7-23.5-148c-17.1-45.7-42.6-87.1-75.8-123.2
						c-33.2-36.1-72.4-64.9-116.5-85.8c-45.7-21.6-94.6-33.6-145.5-35.7c-50.9-2.1-100.7,5.8-148,23.5
						c-45.7,17.1-87.1,42.6-123.2,75.8c-36.1,33.2-64.9,72.4-85.8,116.5c-21.6,45.7-33.6,94.6-35.7,145.5L665.4,596z"/>
				</g>
				<g>
					<path class="st2" d="M1044.7,882.8c-72.4,0-140.5-28.2-191.7-79.4c-51.2-51.2-79.4-119.3-79.4-191.7s28.2-140.4,79.4-191.6
						c51.2-51.2,119.3-79.4,191.7-79.4s140.5,28.2,191.7,79.4s79.4,119.3,79.4,191.7s-28.2,140.5-79.4,191.7
						C1185.2,854.6,1117.1,882.8,1044.7,882.8z M1044.7,345.4c-71.1,0-138,27.7-188.3,78c-50.3,50.3-78,117.2-78,188.3
						s27.7,138,78,188.3c50.3,50.3,117.2,78,188.3,78s138-27.7,188.3-78s78-117.2,78-188.3s-27.7-138-78-188.3
						S1115.8,345.4,1044.7,345.4z"/>
				</g>
				<g>
					<path class="st3" d="M1044.7,790.7c-98.7,0-179-80.3-179-179s80.3-179,179-179c98.7,0,179,80.3,179,179
						S1143.4,790.7,1044.7,790.7z M1044.7,437.5c-96.1,0-174.2,78.1-174.2,174.2s78.1,174.2,174.2,174.2s174.2-78.1,174.2-174.2
						C1218.9,515.7,1140.8,437.5,1044.7,437.5z"/>
				</g>
			</g>
		</g>
	</g>
</g>
<g>
	<g>
		<g>
			<line class="st4" x1="1495.4" y1="705.3" x2="588.2" y2="705.3"/>
			<path class="st5" d="M1495.4,707.7H588.2l0,0c0-2.6,2.1-4.8,4.8-4.8h897.6C1493.2,702.9,1495.4,705,1495.4,707.7L1495.4,707.7z"
				/>
			<path class="st5" d="M573.7,707.7h-20l0,0c0-2.6,0-4.8,0.1-4.8h19.8C573.6,702.9,573.7,705,573.7,707.7L573.7,707.7z"/>
			<path class="st5" d="M539.2,707.7h-20l0,0c0-2.6,0-4.8,0.1-4.8h19.8C539.1,702.9,539.2,705,539.2,707.7L539.2,707.7z"/>
			<path class="st5" d="M494,707.7H336.9l0,0c0-2.6,0.3-4.8,0.7-4.8h155.8C493.7,702.9,494,705,494,707.7L494,707.7z"/>
		</g>
		<g>
			<g>
				<g>
					<g>
						<rect x="873.3" y="581.5" class="st6" width="359.4" height="123.8"/>
						<path class="st5" d="M1235.1,707.6H870.9V579.1h364.2V707.6z M875.7,702.8h354.7v-119H875.7V702.8z"/>
					</g>
					<g class="st7">
						<path class="st5" d="M873.3,581.5v18.9h357.8v-18.9C1231.1,581.5,872.5,581.5,873.3,581.5z"/>
					</g>
					<g class="st7">
						<polygon class="st5" points="1104.6,582.6 1104.6,704.8 1232.7,704.8 						"/>
					</g>
					<rect x="859.1" y="549.6" class="st8" width="385.3" height="31.3"/>
					<rect x="999.1" y="506.5" class="st8" width="105" height="198"/>
					<g>
						<path class="st6" d="M1067.5,703.1h-29v-51.3h8.7c11.2,0,20.4,9.1,20.4,20.4L1067.5,703.1L1067.5,703.1L1067.5,703.1z"/>
						<path class="st5" d="M1068.7,704.3h-31.4v-53.7h13.1c10.1,0,18.3,8.2,18.3,18.3V704.3L1068.7,704.3z M1039.6,702h26.7v-33
							c0-8.8-7.1-15.9-15.9-15.9h-10.7L1039.6,702L1039.6,702z"/>
					</g>
				</g>
				<g>
					<ellipse class="st6" cx="1053.7" cy="574" rx="7.6" ry="11.6"/>
					<path class="st5" d="M1053.7,586.8c-4.9,0-8.8-5.6-8.8-12.8s3.8-12.8,8.8-12.8c4.9,0,8.8,5.6,8.8,12.8
						C1062.4,581.2,1058.6,586.8,1053.7,586.8z M1053.7,563.6c-3.5,0-6.4,4.8-6.4,10.4c0,5.7,2.9,10.4,6.4,10.4s6.4-4.8,6.4-10.4
						C1060,568.4,1057.1,563.6,1053.7,563.6z"/>
				</g>
				<g>
					<g>
						<rect x="947.4" y="614.8" class="st6" width="32" height="25.8"/>
						<path class="st5" d="M980.6,641.8h-34.3v-28.2h34.3V641.8z M948.6,639.4h29.6V616h-29.6V639.4z"/>
					</g>
					<g class="st7">
						<path class="st5" d="M947.4,614.8l32,25.8h-32C947.4,640.6,947.9,614.4,947.4,614.8z"/>
					</g>
				</g>
				<g>
					<g>
						<rect x="1124.9" y="614.8" class="st6" width="32" height="25.8"/>
						<path class="st5" d="M1158,641.8h-34.3v-28.2h34.3V641.8z M1126.1,639.4h29.6V616h-29.6V639.4z"/>
					</g>
					<g class="st7">
						<path class="st5" d="M1124.9,614.8l32,25.8h-32C1124.9,640.6,1125.3,614.4,1124.9,614.8z"/>
					</g>
				</g>
				<g>
					<g>
						<rect x="1177.8" y="614.8" class="st6" width="32" height="25.8"/>
						<path class="st5" d="M1211,641.8h-34.3v-28.2h34.3V641.8z M1179,639.4h29.6V616H1179V639.4z"/>
					</g>
					<g class="st7">
						<path class="st5" d="M1177.8,614.8l32,25.8h-32C1177.8,640.6,1178.3,614.4,1177.8,614.8z"/>
					</g>
				</g>
				<g>
					<g>
						<rect x="895.6" y="614.8" class="st6" width="32" height="25.8"/>
						<path class="st5" d="M928.7,641.8h-34.3v-28.2h34.3V641.8z M896.8,639.4h29.6V616h-29.6V639.4z"/>
					</g>
					<g class="st7">
						<path class="st5" d="M895.6,614.8l32,25.8h-32C895.6,640.6,896,614.4,895.6,614.8z"/>
					</g>
				</g>
				<g>
					<g>
						<path class="st5" d="M1058.3,501.6v-42.5c0-0.7-0.5-1.2-1.2-1.2h-0.4c-0.7,0-1.2,0.5-1.2,1.2v42.5c0,0.7,0.5,1.2,1.2,1.2h0.4
							C1057.8,502.8,1058.3,502.2,1058.3,501.6z"/>
					</g>
					<g>
						<path class="st6" d="M1057.2,480.5c0,0-13.8-1.8-19.3,0.8c-4.7,2.3-19.1-0.8-19.1-0.8V462c0,0,14.8,2.8,19.9,1.7
							c4.4-1,18.5-1.7,18.5-1.7V480.5L1057.2,480.5z"/>
						<path class="st5" d="M1032.4,483.3c-5.8,0-12.7-1.5-13.8-1.7l-0.9-0.2v-20.9l1.4,0.3c0.1,0,14.6,2.8,19.4,1.7
							c4.5-1,18.1-1.7,18.7-1.7l1.3-0.1v21.1l-1.3-0.2c-0.1,0-13.5-1.7-18.7,0.7C1037,483.1,1034.8,483.3,1032.4,483.3z M1020,479.5
							c4.5,0.9,14,2.3,17.4,0.7c4.8-2.3,15-1.5,18.7-1.1v-15.9c-3.5,0.2-13.5,0.8-17,1.6c-4.4,1-15.1-0.7-19-1.4L1020,479.5
							L1020,479.5L1020,479.5z"/>
					</g>
					<g class="st7">
						<polygon class="st5" points="1055.8,463 1020.2,479.8 1032.2,482.6 1039.5,480.6 1057.2,480.5 						"/>
					</g>
				</g>
				<g class="st7">
					<path class="st5" d="M1039.4,651.8v51.3h13.1v-51.6C1052.6,651.5,1039.4,651.2,1039.4,651.8z"/>
				</g>
				<g class="st9">
					<g>
						<g>
							<g>
								<path class="st5" d="M1130.3,629.4v3.9l2.5,1l2.9-1c0,0,2.2-0.6,2.2-2s0-4.1,0-4.1h-7.6
									C1130.3,627.2,1130.3,629.4,1130.3,629.4z"/>
							</g>
							<g>
								<path class="st5" d="M1132.8,634.4l-2.7-1V627h7.9v4.3c0,0.6-0.4,1.2-1.2,1.6c-0.5,0.3-1.1,0.5-1.1,0.5L1132.8,634.4z
									 M1130.5,633.2l2.3,0.9l2.8-0.9c0,0,2.1-0.6,2.1-1.8v-4h-7.3L1130.5,633.2L1130.5,633.2z"/>
							</g>
						</g>
						<g>
							<g>
								<path class="st5" d="M1131,629.5h1v-0.7c0,0,1-0.2,0.9-0.9s2.6,3.2,5.7-1.1h-0.8c0,0,0-3.2-4.2-2.9s-3.6,4.6-3.6,4.6
									L1131,629.5z"/>
							</g>
							<g>
								<path class="st5" d="M1132.1,629.7h-1.2l-1.1-1.1v-0.1c0-0.1-0.3-2.1,0.9-3.5c0.6-0.8,1.6-1.3,2.9-1.4
									c1.5-0.1,2.6,0.2,3.4,0.9s1,1.6,1,2h1l-0.2,0.3c-1.2,1.6-2.3,2.1-3.3,2.1s-1.9-0.6-2.3-0.9l-0.1-0.1c0,0.5-0.6,0.8-0.9,0.9
									v0.9L1132.1,629.7L1132.1,629.7z M1131.1,629.4h0.7v-0.7h0.1c0,0,0.9-0.2,0.8-0.7c0-0.2,0-0.2,0.1-0.3s0.3,0,0.5,0.2
									c0.8,0.6,2.7,1.9,4.9-0.9h-0.6v-0.2c0,0,0-1.1-0.9-1.9c-0.7-0.6-1.8-0.9-3.1-0.8c-1.2,0.1-2,0.5-2.6,1.2
									c-1,1.2-0.8,2.8-0.8,3.2L1131.1,629.4z"/>
							</g>
						</g>
						<g>
							<g>
								<path class="st5" d="M1130.5,630.5L1130.5,630.5c-0.5,0-1-0.4-1-1l0,0c0-0.5,0.4-1,1-1l0,0c0.5,0,1,0.6,1,1.2"/>
							</g>
							<g>
								<path class="st5" d="M1130.5,630.7c-0.6,0-1.2-0.5-1.2-1.2c0-0.6,0.5-1.2,1.2-1.2s1.2,0.7,1.2,1.3h-0.3c0-0.6-0.5-1-0.8-1
									c-0.5,0-0.8,0.4-0.8,0.8c0,0.4,0.4,0.8,0.8,0.8L1130.5,630.7L1130.5,630.7L1130.5,630.7z"/>
							</g>
						</g>
						<g class="st7">
							<g>
								<path class="st5" d="M1130.4,631.4v1.8l2.6,1.1l2.5-1.1l-2.4,0.1c-0.3,0-0.5,0-0.8-0.1c-0.1,0-0.1,0-0.2-0.1
									c-0.5-0.2-0.9-0.5-1.2-1L1130.4,631.4z"/>
							</g>
						</g>
						<g>
							<g>
								<path class="st5" d="M1134.3,630.8h1.7C1136,630.8,1135.1,633.1,1134.3,630.8z"/>
							</g>
							<g>
								<path class="st5" d="M1135.1,631.9L1135.1,631.9c-0.3,0-0.6-0.4-0.9-1v-0.1h1.9v0.1C1136,630.9,1135.6,631.9,1135.1,631.9z
									 M1134.4,630.9c0.2,0.5,0.4,0.8,0.7,0.8l0,0c0.3,0,0.6-0.5,0.8-0.8H1134.4z"/>
							</g>
						</g>
						<g class="st7">
							<path class="st5" d="M1132.2,627.4l-0.4,0.4c-0.1,0-0.7-0.3-0.7-0.4l0.3-1.3c0-0.1,0.8-1.1,0.9-1.1c0.5-0.1,2.5-0.6,3.4,0
								c0.8,0.5,1.4,1.6,1.5,2c0,0.1,0,0.2-0.1,0.2c-0.5,0.3-2.2,1.4-3.9,0.4c-0.9-0.5-1-0.6-1-0.6
								C1132.5,627.1,1132.4,627.3,1132.2,627.4z"/>
						</g>
					</g>
					<path class="st5" d="M1134.8,641.5h-4.3c-1.4,0-2.5-1.1-2.5-2.5v-3.1c0-1.4,1.1-2.5,2.5-2.5h4.3c1.4,0,2.5,1.1,2.5,2.5v3.1
						C1137.3,640.4,1136.1,641.5,1134.8,641.5z"/>
				</g>
				<g class="st9">
					<g>
						<g>
							<g>
								<path class="st5" d="M1142.6,629.8v3.4l2.2,0.8l2.5-0.8c0,0,2-0.5,2-1.7s0-3.7,0-3.7h-6.7
									C1142.6,627.8,1142.6,629.7,1142.6,629.8z"/>
							</g>
							<g>
								<path class="st5" d="M1144.8,634.2l-2.4-0.9v-5.7h7v3.8c0,0.6-0.4,1.1-1.1,1.4c-0.5,0.3-1,0.4-1,0.4L1144.8,634.2z
									 M1142.7,633.1l2.1,0.8l2.5-0.8c0,0,1.9-0.5,1.9-1.6V628h-6.4L1142.7,633.1L1142.7,633.1z"/>
							</g>
						</g>
						<g>
							<g>
								<path class="st5" d="M1143.2,629.9h0.8v-0.6c0,0,0.9-0.2,0.8-0.8c-0.1-0.7,2.3,2.8,5.1-0.9h-0.7c0,0,0-2.9-3.8-2.6
									c-3.7,0.3-3.2,4.1-3.2,4.1L1143.2,629.9z"/>
							</g>
							<g>
								<path class="st5" d="M1144.1,630h-1.1l-1-1l0,0c0-0.1-0.2-1.8,0.8-3.1c0.6-0.7,1.4-1.1,2.5-1.2c1.3-0.1,2.3,0.2,3,0.8
									s0.9,1.5,0.9,1.8h0.9l-0.2,0.2c-1.1,1.4-2.1,1.8-2.9,1.8c-0.9,0-1.7-0.5-2-0.8c0,0-0.1,0-0.1-0.1c0,0.5-0.5,0.7-0.8,0.8
									L1144.1,630L1144.1,630z M1143.2,629.7h0.6v-0.6h0.1c0,0,0.8-0.1,0.7-0.7c0-0.1,0-0.2,0.1-0.2c0.1-0.1,0.2,0,0.5,0.2
									c0.7,0.5,2.4,1.7,4.4-0.8h-0.6v-0.1c0,0,0-1-0.8-1.7c-0.6-0.6-1.6-0.8-2.8-0.7c-1,0.1-1.8,0.4-2.3,1.1
									c-0.8,1-0.8,2.5-0.7,2.8L1143.2,629.7z"/>
							</g>
						</g>
						<g>
							<g>
								<path class="st5" d="M1142.7,630.8L1142.7,630.8c-0.5,0-0.9-0.4-0.9-0.9l0,0c0-0.5,0.4-0.9,0.9-0.9l0,0c0.5,0,0.9,0.5,0.9,1
									"/>
							</g>
							<g>
								<path class="st5" d="M1142.7,630.9c-0.6,0-1-0.5-1-1c0-0.6,0.5-1,1-1c0.6,0,1,0.6,1,1.2h-0.3c0-0.5-0.4-0.9-0.7-0.9
									c-0.4,0-0.7,0.3-0.7,0.7s0.3,0.7,0.7,0.7V630.9z"/>
							</g>
						</g>
						<g class="st7">
							<g>
								<path class="st5" d="M1142.6,631.6v1.6l2.3,1l2.2-1l-2.1,0.1c-0.2,0-0.5,0-0.7-0.1c-0.1,0-0.1,0-0.2-0.1
									c-0.4-0.2-0.8-0.5-1.1-0.9L1142.6,631.6z"/>
							</g>
						</g>
						<g>
							<g>
								<path class="st5" d="M1146.1,631h1.5C1147.6,631,1146.8,633,1146.1,631z"/>
							</g>
							<g>
								<path class="st5" d="M1146.8,632L1146.8,632c-0.3,0-0.5-0.3-0.8-0.9V631h1.7v0.1C1147.6,631.1,1147.3,632,1146.8,632z
									 M1146.2,631.1c0.2,0.5,0.4,0.7,0.6,0.7l0,0c0.3,0,0.6-0.5,0.7-0.7H1146.2z"/>
							</g>
						</g>
					</g>
					<path class="st5" d="M1146.2,640.5h-3.3c-1.4,0-2.5-1.1-2.5-2.5v-2.2c0-1.4,1.1-2.5,2.5-2.5h3.3c1.4,0,2.5,1.1,2.5,2.5v2.2
						C1148.7,639.4,1147.6,640.5,1146.2,640.5z"/>
				</g>
				<g class="st9">
					<g>
						<g>
							<g>
								<path class="st5" d="M949.1,629.4v3.9l2.5,1l2.9-1c0,0,2.2-0.6,2.2-2s0-4.1,0-4.1h-7.6C949.1,627.2,949.1,629.4,949.1,629.4
									z"/>
							</g>
							<g>
								<path class="st5" d="M951.6,634.4l-2.7-1V627h7.9v4.3c0,0.6-0.4,1.2-1.2,1.6c-0.5,0.3-1.1,0.5-1.1,0.5L951.6,634.4z
									 M949.3,633.2l2.3,0.9l2.8-0.9c0,0,2.1-0.6,2.1-1.8v-4h-7.3L949.3,633.2L949.3,633.2z"/>
							</g>
						</g>
						<g>
							<g>
								<path class="st5" d="M949.7,629.5h1v-0.7c0,0,1-0.2,0.9-0.9s2.6,3.2,5.7-1.1h-0.8c0,0,0-3.2-4.2-2.9
									c-4.2,0.3-3.6,4.6-3.6,4.6L949.7,629.5z"/>
							</g>
							<g>
								<path class="st5" d="M950.8,629.7h-1.2l-1.1-1.1v-0.1c0-0.1-0.3-2.1,0.9-3.5c0.6-0.8,1.6-1.3,2.9-1.4
									c1.5-0.1,2.6,0.2,3.4,0.9c0.8,0.7,1,1.6,1,2h1l-0.2,0.3c-1.2,1.6-2.3,2.1-3.3,2.1s-1.9-0.6-2.3-0.9l-0.1-0.1
									c0,0.5-0.6,0.8-0.9,0.9v0.9L950.8,629.7L950.8,629.7z M949.8,629.4h0.7v-0.7h0.1c0,0,0.9-0.2,0.8-0.7c0-0.2,0-0.2,0.1-0.3
									s0.3,0,0.5,0.2c0.8,0.6,2.7,1.9,4.9-0.9h-0.6v-0.2c0,0,0-1.1-0.9-1.9c-0.7-0.6-1.8-0.9-3.1-0.8c-1.2,0.1-2,0.5-2.6,1.2
									c-1,1.2-0.8,2.8-0.8,3.2L949.8,629.4z"/>
							</g>
						</g>
						<g>
							<g>
								<path class="st5" d="M949.3,630.5L949.3,630.5c-0.5,0-1-0.4-1-1l0,0c0-0.5,0.4-1,1-1l0,0c0.5,0,1,0.6,1,1.2"/>
							</g>
							<g>
								<path class="st5" d="M949.3,630.7c-0.6,0-1.2-0.5-1.2-1.2c0-0.6,0.5-1.2,1.2-1.2c0.7,0,1.2,0.7,1.2,1.3h-0.3
									c0-0.6-0.5-1-0.8-1c-0.5,0-0.8,0.4-0.8,0.8c0,0.4,0.4,0.8,0.8,0.8v0.5L949.3,630.7L949.3,630.7z"/>
							</g>
						</g>
						<g class="st7">
							<g>
								<path class="st5" d="M949.1,631.4v1.8l2.6,1.1l2.5-1.1l-2.4,0.1c-0.3,0-0.5,0-0.8-0.1c-0.1,0-0.1,0-0.2-0.1
									c-0.5-0.2-0.9-0.5-1.2-1L949.1,631.4z"/>
							</g>
						</g>
						<g>
							<g>
								<path class="st5" d="M953,630.8h1.7C954.7,630.8,953.8,633.1,953,630.8z"/>
							</g>
							<g>
								<path class="st5" d="M953.8,631.9L953.8,631.9c-0.3,0-0.6-0.4-0.9-1v-0.1h1.9v0.1C954.8,630.9,954.4,631.9,953.8,631.9z
									 M953.2,630.9c0.2,0.5,0.4,0.8,0.7,0.8l0,0c0.3,0,0.6-0.5,0.8-0.8H953.2z"/>
							</g>
						</g>
						<g class="st7">
							<path class="st5" d="M951,627.4l-0.4,0.4c-0.1,0-0.7-0.3-0.7-0.4l0.3-1.3c0-0.1,0.8-1.1,0.9-1.1c0.5-0.1,2.5-0.6,3.4,0
								c0.8,0.5,1.4,1.6,1.5,2c0,0.1,0,0.2-0.1,0.2c-0.5,0.3-2.2,1.4-3.9,0.4c-0.9-0.5-1-0.6-1-0.6
								C951.2,627.1,951.2,627.3,951,627.4z"/>
						</g>
					</g>
					<path class="st5" d="M953.5,641.5h-4.3c-1.4,0-2.5-1.1-2.5-2.5v-3.1c0-1.4,1.1-2.5,2.5-2.5h4.3c1.4,0,2.5,1.1,2.5,2.5v3.1
						C956,640.4,954.9,641.5,953.5,641.5z"/>
				</g>
				<g class="st9">
					<g>
						<g>
							<g>
								<path class="st5" d="M961.3,629.8v3.4l2.2,0.8l2.5-0.8c0,0,2-0.5,2-1.7s0-3.7,0-3.7h-6.7
									C961.3,627.8,961.3,629.7,961.3,629.8z"/>
							</g>
							<g>
								<path class="st5" d="M963.5,634.2l-2.4-0.9v-5.7h7v3.8c0,0.6-0.4,1.1-1.1,1.4c-0.5,0.3-1,0.4-1,0.4L963.5,634.2z
									 M961.5,633.1l2.1,0.8l2.5-0.8c0,0,1.9-0.5,1.9-1.6V628h-6.4L961.5,633.1L961.5,633.1z"/>
							</g>
						</g>
						<g>
							<g>
								<path class="st5" d="M961.9,629.9h0.8v-0.6c0,0,0.9-0.2,0.8-0.8c-0.1-0.7,2.3,2.8,5.1-0.9h-0.7c0,0,0-2.9-3.8-2.6
									c-3.7,0.3-3.2,4.1-3.2,4.1L961.9,629.9z"/>
							</g>
							<g>
								<path class="st5" d="M962.9,630h-1.1l-1-1l0,0c0-0.1-0.2-1.8,0.8-3.1c0.6-0.7,1.4-1.1,2.5-1.2c1.3-0.1,2.3,0.2,3,0.8
									c0.7,0.6,0.9,1.5,0.9,1.8h0.9l-0.2,0.2c-1.1,1.4-2.1,1.8-2.9,1.8c-0.9,0-1.7-0.5-2-0.8c0,0-0.1,0-0.1-0.1
									c0,0.5-0.5,0.7-0.8,0.8L962.9,630L962.9,630z M962,629.7h0.6v-0.6h0.1c0,0,0.8-0.1,0.7-0.7c0-0.1,0-0.2,0.1-0.2
									c0.1-0.1,0.2,0,0.5,0.2c0.7,0.5,2.4,1.7,4.4-0.8h-0.6v-0.1c0,0,0-1-0.8-1.7c-0.6-0.6-1.6-0.8-2.8-0.7
									c-1,0.1-1.8,0.4-2.3,1.1c-0.8,1-0.8,2.5-0.7,2.8L962,629.7z"/>
							</g>
						</g>
						<g>
							<g>
								<path class="st5" d="M961.5,630.8L961.5,630.8c-0.5,0-0.9-0.4-0.9-0.9l0,0c0-0.5,0.4-0.9,0.9-0.9l0,0c0.5,0,0.9,0.5,0.9,1"
									/>
							</g>
							<g>
								<path class="st5" d="M961.5,630.9c-0.6,0-1-0.5-1-1c0-0.6,0.5-1,1-1c0.6,0,1,0.6,1,1.2h-0.3c0-0.5-0.4-0.9-0.7-0.9
									c-0.4,0-0.7,0.3-0.7,0.7s0.3,0.7,0.7,0.7V630.9z"/>
							</g>
						</g>
						<g class="st7">
							<g>
								<path class="st5" d="M961.4,631.6v1.6l2.3,1l2.2-1l-2.1,0.1c-0.2,0-0.5,0-0.7-0.1c-0.1,0-0.1,0-0.2-0.1
									c-0.4-0.2-0.8-0.5-1.1-0.9L961.4,631.6z"/>
							</g>
						</g>
						<g>
							<g>
								<path class="st5" d="M964.8,631h1.5C966.3,631,965.5,633,964.8,631z"/>
							</g>
							<g>
								<path class="st5" d="M965.5,632L965.5,632c-0.3,0-0.5-0.3-0.8-0.9V631h1.7v0.1C966.4,631.1,966,632,965.5,632z M964.9,631.1
									c0.2,0.5,0.4,0.7,0.6,0.7l0,0c0.3,0,0.6-0.5,0.7-0.7H964.9z"/>
							</g>
						</g>
					</g>
					<path class="st5" d="M965,640.5h-3.3c-1.4,0-2.5-1.1-2.5-2.5v-2.2c0-1.4,1.1-2.5,2.5-2.5h3.3c1.4,0,2.5,1.1,2.5,2.5v2.2
						C967.5,639.4,966.3,640.5,965,640.5z"/>
				</g>
				<g class="st9">
					<g>
						<g>
							<g>
								<path class="st5" d="M919.3,629.8v3.4l2.2,0.8l2.5-0.8c0,0,2-0.5,2-1.7s0-3.7,0-3.7h-6.7
									C919.3,627.8,919.3,629.7,919.3,629.8z"/>
							</g>
							<g>
								<path class="st5" d="M921.5,634.2l-2.4-0.9v-5.7h7v3.8c0,0.6-0.4,1.1-1.1,1.4c-0.5,0.3-1,0.4-1,0.4L921.5,634.2z
									 M919.5,633.1l2.1,0.8l2.5-0.8c0,0,1.9-0.5,1.9-1.6V628h-6.4L919.5,633.1L919.5,633.1z"/>
							</g>
						</g>
						<g>
							<g>
								<path class="st5" d="M919.9,629.9h0.8v-0.6c0,0,0.9-0.2,0.8-0.8c-0.1-0.7,2.3,2.8,5.1-0.9h-0.7c0,0,0-2.9-3.8-2.6
									c-3.7,0.3-3.2,4.1-3.2,4.1L919.9,629.9z"/>
							</g>
							<g>
								<path class="st5" d="M920.9,630h-1.1l-1-1l0,0c0-0.1-0.2-1.8,0.8-3.1c0.6-0.7,1.4-1.1,2.5-1.2c1.3-0.1,2.3,0.2,3,0.8
									c0.7,0.6,0.9,1.5,0.9,1.8h0.9l-0.2,0.2c-1.1,1.4-2.1,1.8-2.9,1.8c-0.9,0-1.7-0.5-2-0.8c0,0-0.1,0-0.1-0.1
									c0,0.5-0.5,0.7-0.8,0.8L920.9,630L920.9,630z M920,629.7h0.6v-0.6h0.1c0,0,0.8-0.1,0.7-0.7c0-0.1,0-0.2,0.1-0.2
									c0.1-0.1,0.2,0,0.5,0.2c0.7,0.5,2.4,1.7,4.4-0.8h-0.6v-0.1c0,0,0-1-0.8-1.7c-0.6-0.6-1.6-0.8-2.8-0.7
									c-1,0.1-1.8,0.4-2.3,1.1c-0.8,1-0.8,2.5-0.7,2.8L920,629.7z"/>
							</g>
						</g>
						<g>
							<g>
								<path class="st5" d="M919.5,630.8L919.5,630.8c-0.5,0-0.9-0.4-0.9-0.9l0,0c0-0.5,0.4-0.9,0.9-0.9l0,0c0.5,0,0.9,0.5,0.9,1"
									/>
							</g>
							<g>
								<path class="st5" d="M919.5,630.9c-0.6,0-1-0.5-1-1c0-0.6,0.5-1,1-1c0.6,0,1,0.6,1,1.2h-0.3c0-0.5-0.4-0.9-0.7-0.9
									c-0.4,0-0.7,0.3-0.7,0.7s0.3,0.7,0.7,0.7V630.9z"/>
							</g>
						</g>
						<g class="st7">
							<g>
								<path class="st5" d="M919.4,631.6v1.6l2.3,1l2.2-1l-2.1,0.1c-0.2,0-0.5,0-0.7-0.1c-0.1,0-0.1,0-0.2-0.1
									c-0.4-0.2-0.8-0.5-1.1-0.9L919.4,631.6z"/>
							</g>
						</g>
						<g>
							<g>
								<path class="st5" d="M922.8,631h1.5C924.3,631,923.5,633,922.8,631z"/>
							</g>
							<g>
								<path class="st5" d="M923.5,632L923.5,632c-0.3,0-0.5-0.3-0.8-0.9V631h1.7v0.1C924.4,631.1,924,632,923.5,632z M922.9,631.1
									c0.2,0.5,0.4,0.7,0.6,0.7l0,0c0.3,0,0.6-0.5,0.7-0.7H922.9z"/>
							</g>
						</g>
					</g>
					<path class="st5" d="M923,640.5h-3.3c-1.4,0-2.5-1.1-2.5-2.5v-2.2c0-1.4,1.1-2.5,2.5-2.5h3.3c1.4,0,2.5,1.1,2.5,2.5v2.2
						C925.5,639.4,924.3,640.5,923,640.5z"/>
				</g>
				<g class="st9">
					<g>
						<g>
							<g>
								<path class="st5" d="M908,629.8v3.4l2.2,0.8l2.5-0.8c0,0,2-0.5,2-1.7s0-3.7,0-3.7H908C908,627.8,908,629.7,908,629.8z"/>
							</g>
							<g>
								<path class="st5" d="M910.2,634.2l-2.4-0.9v-5.7h7v3.8c0,0.6-0.4,1.1-1.1,1.4c-0.5,0.3-1,0.4-1,0.4L910.2,634.2z
									 M908.1,633.1l2.1,0.8l2.5-0.8c0,0,1.9-0.5,1.9-1.6V628h-6.4L908.1,633.1L908.1,633.1z"/>
							</g>
						</g>
						<g>
							<g>
								<path class="st5" d="M908.5,629.9h0.8v-0.6c0,0,0.9-0.2,0.8-0.8c-0.1-0.7,2.3,2.8,5.1-0.9h-0.7c0,0,0-2.9-3.8-2.6
									c-3.7,0.3-3.2,4.1-3.2,4.1L908.5,629.9z"/>
							</g>
							<g>
								<path class="st5" d="M909.5,630h-1.1l-1-1l0,0c0-0.1-0.2-1.8,0.8-3.1c0.6-0.7,1.4-1.1,2.5-1.2c1.3-0.1,2.3,0.2,3,0.8
									c0.7,0.6,0.9,1.5,0.9,1.8h0.9l-0.2,0.2c-1.1,1.4-2.1,1.8-2.9,1.8c-0.9,0-1.7-0.5-2-0.8c0,0-0.1,0-0.1-0.1
									c0,0.5-0.5,0.7-0.8,0.8V630L909.5,630z M908.6,629.7h0.6v-0.6h0.1c0,0,0.8-0.1,0.7-0.7c0-0.1,0-0.2,0.1-0.2
									c0.1-0.1,0.2,0,0.5,0.2c0.7,0.5,2.4,1.7,4.4-0.8h-0.6v-0.1c0,0,0-1-0.8-1.7c-0.6-0.6-1.6-0.8-2.8-0.7
									c-1,0.1-1.8,0.4-2.3,1.1c-0.8,1-0.8,2.5-0.7,2.8L908.6,629.7z"/>
							</g>
						</g>
						<g>
							<g>
								<path class="st5" d="M908.1,630.8L908.1,630.8c-0.5,0-0.9-0.4-0.9-0.9l0,0c0-0.5,0.4-0.9,0.9-0.9l0,0c0.5,0,0.9,0.5,0.9,1"
									/>
							</g>
							<g>
								<path class="st5" d="M908.1,630.9c-0.6,0-1-0.5-1-1c0-0.6,0.5-1,1-1c0.6,0,1,0.6,1,1.2h-0.3c0-0.5-0.4-0.9-0.7-0.9
									c-0.4,0-0.7,0.3-0.7,0.7s0.3,0.7,0.7,0.7V630.9z"/>
							</g>
						</g>
						<g class="st7">
							<g>
								<path class="st5" d="M908,631.6v1.6l2.3,1l2.2-1l-2.1,0.1c-0.2,0-0.5,0-0.7-0.1c-0.1,0-0.1,0-0.2-0.1
									c-0.4-0.2-0.8-0.5-1.1-0.9L908,631.6z"/>
							</g>
						</g>
						<g>
							<g>
								<path class="st5" d="M911.5,631h1.5C913,631,912.2,633,911.5,631z"/>
							</g>
							<g>
								<path class="st5" d="M912.2,632L912.2,632c-0.3,0-0.5-0.3-0.8-0.9V631h1.7v0.1C913,631.1,912.7,632,912.2,632z M911.6,631.1
									c0.2,0.5,0.4,0.7,0.6,0.7l0,0c0.3,0,0.6-0.5,0.7-0.7H911.6z"/>
							</g>
						</g>
					</g>
					<path class="st5" d="M911.6,640.5h-3.3c-1.4,0-2.5-1.1-2.5-2.5v-2.2c0-1.4,1.1-2.5,2.5-2.5h3.3c1.4,0,2.5,1.1,2.5,2.5v2.2
						C914.1,639.4,913,640.5,911.6,640.5z"/>
				</g>
				<g class="st9">
					<g>
						<g>
							<g>
								<path class="st5" d="M898.8,628.1v4l2.6,1l2.9-1c0,0,2.3-0.6,2.3-2s0-4.3,0-4.3h-7.8C898.8,625.8,898.8,628,898.8,628.1z"/>
							</g>
							<g>
								<path class="st5" d="M901.4,633.2l-2.7-1v-6.6h8.2v4.4c0,0.6-0.4,1.2-1.2,1.7c-0.6,0.3-1.1,0.5-1.2,0.5L901.4,633.2z
									 M899,631.9l2.4,0.9l2.9-1c0,0,2.2-0.6,2.2-1.8v-4.1H899V631.9L899,631.9z"/>
							</g>
						</g>
						<g>
							<g>
								<path class="st5" d="M899.5,628.2h1v-0.7c0,0,1.1-0.2,1-1s2.6,3.3,5.9-1.1h-0.8c0,0,0-3.3-4.4-3c-4.3,0.3-3.7,4.8-3.7,4.8
									L899.5,628.2z"/>
							</g>
							<g>
								<path class="st5" d="M900.6,628.3h-1.2l-1.1-1.1v-0.1c0-0.1-0.3-2.1,0.9-3.6c0.7-0.8,1.7-1.3,3-1.4c1.5-0.1,2.7,0.2,3.5,0.9
									c0.8,0.7,1,1.7,1,2.1h1l-0.2,0.3c-1.2,1.6-2.4,2.1-3.4,2.1c-1.1,0-1.9-0.6-2.4-0.9l-0.1-0.1c0,0.5-0.6,0.8-1,0.9V628.3z
									 M899.5,628h0.7v-0.7h0.1c0,0,0.9-0.2,0.8-0.8c0-0.2,0-0.2,0.1-0.3s0.3,0,0.6,0.2c0.8,0.6,2.8,1.9,5.1-0.9h-0.7v-0.2
									c0,0,0-1.2-0.9-2c-0.7-0.7-1.8-0.9-3.2-0.8c-1.2,0.1-2.1,0.5-2.7,1.3c-1,1.2-0.9,2.9-0.8,3.3L899.5,628z"/>
							</g>
						</g>
						<g>
							<g>
								<path class="st5" d="M899,629.2L899,629.2c-0.6,0-1-0.5-1-1l0,0c0-0.6,0.5-1,1-1l0,0c0.6,0,1,0.6,1,1.2"/>
							</g>
							<g>
								<path class="st5" d="M899,629.4c-0.7,0-1.2-0.5-1.2-1.2s0.5-1.2,1.2-1.2c0.7,0,1.2,0.7,1.2,1.4h-0.3c0-0.6-0.5-1-0.9-1
									c-0.5,0-0.9,0.4-0.9,0.9s0.4,0.9,0.9,0.9V629.4z"/>
							</g>
						</g>
						<g class="st7">
							<g>
								<path class="st5" d="M898.9,630.1v1.9l2.7,1.1l2.6-1.1l-2.5,0.1c-0.3,0-0.5,0-0.8-0.1c-0.1,0-0.1,0-0.2-0.1
									c-0.5-0.2-0.9-0.6-1.2-1L898.9,630.1z"/>
							</g>
						</g>
						<g>
							<g>
								<path class="st5" d="M902.9,629.5h1.7C904.6,629.5,903.7,631.8,902.9,629.5z"/>
							</g>
							<g>
								<path class="st5" d="M903.7,630.6L903.7,630.6c-0.3,0-0.6-0.4-0.9-1.1v-0.1h2v0.1C904.7,629.6,904.3,630.6,903.7,630.6z
									 M903,629.6c0.2,0.6,0.4,0.8,0.7,0.8l0,0c0.3,0,0.6-0.5,0.8-0.8H903z"/>
							</g>
						</g>
					</g>
					<path class="st5" d="M903.4,640.5h-4.6c-1.4,0-2.5-1.1-2.5-2.5v-3.3c0-1.4,1.1-2.5,2.5-2.5h4.6c1.4,0,2.5,1.1,2.5,2.5v3.3
						C905.9,639.4,904.8,640.5,903.4,640.5z"/>
				</g>
				<g class="st9">
					<g>
						<g>
							<g>
								<path class="st5" d="M972.1,629.8v3.4l2.2,0.8l2.5-0.8c0,0,2-0.5,2-1.7s0-3.7,0-3.7h-6.7
									C972.1,627.8,972.1,629.7,972.1,629.8z"/>
							</g>
							<g>
								<path class="st5" d="M974.3,634.2l-2.4-0.9v-5.7h7v3.8c0,0.6-0.4,1.1-1.1,1.4c-0.5,0.3-1,0.4-1,0.4L974.3,634.2z
									 M972.3,633.1l2.1,0.8l2.5-0.8c0,0,1.9-0.5,1.9-1.6V628h-6.4L972.3,633.1L972.3,633.1z"/>
							</g>
						</g>
						<g>
							<g>
								<path class="st5" d="M972.7,629.9h0.8v-0.6c0,0,0.9-0.2,0.8-0.8c-0.1-0.7,2.3,2.8,5.1-0.9h-0.7c0,0,0-2.9-3.8-2.6
									c-3.7,0.3-3.2,4.1-3.2,4.1L972.7,629.9z"/>
							</g>
							<g>
								<path class="st5" d="M973.7,630h-1.1l-1-1l0,0c0-0.1-0.2-1.8,0.8-3.1c0.6-0.7,1.4-1.1,2.5-1.2c1.3-0.1,2.3,0.2,3,0.8
									c0.7,0.6,0.9,1.5,0.9,1.8h0.9l-0.2,0.2c-1.1,1.4-2.1,1.8-2.9,1.8c-0.9,0-1.7-0.5-2-0.8c0,0-0.1,0-0.1-0.1
									c0,0.5-0.5,0.7-0.8,0.8L973.7,630L973.7,630z M972.8,629.7h0.6v-0.6h0.1c0,0,0.8-0.1,0.7-0.7c0-0.1,0-0.2,0.1-0.2
									c0.1-0.1,0.2,0,0.5,0.2c0.7,0.5,2.4,1.7,4.4-0.8h-0.6v-0.1c0,0,0-1-0.8-1.7c-0.6-0.6-1.6-0.8-2.8-0.7
									c-1,0.1-1.8,0.4-2.3,1.1c-0.8,1-0.8,2.5-0.7,2.8L972.8,629.7z"/>
							</g>
						</g>
						<g>
							<g>
								<path class="st5" d="M972.3,630.8L972.3,630.8c-0.5,0-0.9-0.4-0.9-0.9l0,0c0-0.5,0.4-0.9,0.9-0.9l0,0c0.5,0,0.9,0.5,0.9,1"
									/>
							</g>
							<g>
								<path class="st5" d="M972.3,630.9c-0.6,0-1-0.5-1-1c0-0.6,0.5-1,1-1c0.6,0,1,0.6,1,1.2H973c0-0.5-0.4-0.9-0.7-0.9
									c-0.4,0-0.7,0.3-0.7,0.7s0.3,0.7,0.7,0.7V630.9z"/>
							</g>
						</g>
						<g class="st7">
							<g>
								<path class="st5" d="M972.2,631.6v1.6l2.3,1l2.2-1l-2.1,0.1c-0.2,0-0.5,0-0.7-0.1c-0.1,0-0.1,0-0.2-0.1
									c-0.4-0.2-0.8-0.5-1.1-0.9L972.2,631.6z"/>
							</g>
						</g>
						<g>
							<g>
								<path class="st5" d="M975.6,631h1.5C977.1,631,976.3,633,975.6,631z"/>
							</g>
							<g>
								<path class="st5" d="M976.3,632L976.3,632c-0.3,0-0.5-0.3-0.8-0.9V631h1.7v0.1C977.2,631.1,976.8,632,976.3,632z
									 M975.7,631.1c0.2,0.5,0.4,0.7,0.6,0.7l0,0c0.3,0,0.6-0.5,0.7-0.7H975.7z"/>
							</g>
						</g>
					</g>
					<path class="st5" d="M975.8,640.5h-3.3c-1.4,0-2.5-1.1-2.5-2.5v-2.2c0-1.4,1.1-2.5,2.5-2.5h3.3c1.4,0,2.5,1.1,2.5,2.5v2.2
						C978.3,639.4,977.1,640.5,975.8,640.5z"/>
				</g>
				<g class="st9">
					<g>
						<g>
							<g>
								<path class="st5" d="M1183.2,629.4v3.9l2.5,1l2.9-1c0,0,2.2-0.6,2.2-2s0-4.1,0-4.1h-7.6
									C1183.2,627.2,1183.2,629.4,1183.2,629.4z"/>
							</g>
							<g>
								<path class="st5" d="M1185.7,634.4l-2.7-1V627h7.9v4.3c0,0.6-0.4,1.2-1.2,1.6c-0.5,0.3-1.1,0.5-1.1,0.5L1185.7,634.4z
									 M1183.4,633.2l2.3,0.9l2.8-0.9c0,0,2.1-0.6,2.1-1.8v-4h-7.3L1183.4,633.2L1183.4,633.2z"/>
							</g>
						</g>
						<g>
							<g>
								<path class="st5" d="M1183.8,629.5h1v-0.7c0,0,1-0.2,0.9-0.9s2.6,3.2,5.7-1.1h-0.8c0,0,0-3.2-4.2-2.9s-3.6,4.6-3.6,4.6
									L1183.8,629.5z"/>
							</g>
							<g>
								<path class="st5" d="M1185,629.7h-1.2l-1.1-1.1v-0.1c0-0.1-0.3-2.1,0.9-3.5c0.6-0.8,1.6-1.3,2.9-1.4
									c1.5-0.1,2.6,0.2,3.4,0.9s1,1.6,1,2h1l-0.2,0.3c-1.2,1.6-2.3,2.1-3.3,2.1s-1.9-0.6-2.3-0.9l-0.1-0.1c0,0.5-0.6,0.8-0.9,0.9
									v0.9L1185,629.7L1185,629.7z M1183.9,629.4h0.7v-0.7h0.1c0,0,0.9-0.2,0.8-0.7c0-0.2,0-0.2,0.1-0.3s0.3,0,0.5,0.2
									c0.8,0.6,2.7,1.9,4.9-0.9h-0.6v-0.2c0,0,0-1.1-0.9-1.9c-0.7-0.6-1.8-0.9-3.1-0.8c-1.2,0.1-2,0.5-2.6,1.2
									c-1,1.2-0.8,2.8-0.8,3.2L1183.9,629.4z"/>
							</g>
						</g>
						<g>
							<g>
								<path class="st5" d="M1183.4,630.5L1183.4,630.5c-0.5,0-1-0.4-1-1l0,0c0-0.5,0.4-1,1-1l0,0c0.5,0,1,0.6,1,1.2"/>
							</g>
							<g>
								<path class="st5" d="M1183.4,630.7c-0.6,0-1.2-0.5-1.2-1.2c0-0.6,0.5-1.2,1.2-1.2s1.2,0.7,1.2,1.3h-0.3c0-0.6-0.5-1-0.8-1
									c-0.5,0-0.8,0.4-0.8,0.8c0,0.4,0.4,0.8,0.8,0.8L1183.4,630.7L1183.4,630.7z"/>
							</g>
						</g>
						<g class="st7">
							<g>
								<path class="st5" d="M1183.2,631.4v1.8l2.6,1.1l2.5-1.1l-2.4,0.1c-0.3,0-0.5,0-0.8-0.1c-0.1,0-0.1,0-0.2-0.1
									c-0.5-0.2-0.9-0.5-1.2-1L1183.2,631.4z"/>
							</g>
						</g>
						<g>
							<g>
								<path class="st5" d="M1187.2,630.8h1.7C1188.8,630.8,1187.9,633.1,1187.2,630.8z"/>
							</g>
							<g>
								<path class="st5" d="M1187.9,631.9L1187.9,631.9c-0.3,0-0.6-0.4-0.9-1v-0.1h1.9v0.1C1188.9,630.9,1188.5,631.9,1187.9,631.9
									z M1187.3,630.9c0.2,0.5,0.4,0.8,0.7,0.8l0,0c0.3,0,0.6-0.5,0.8-0.8H1187.3z"/>
							</g>
						</g>
						<g class="st7">
							<path class="st5" d="M1185.1,627.4l-0.4,0.4c-0.1,0-0.7-0.3-0.7-0.4l0.3-1.3c0-0.1,0.8-1.1,0.9-1.1c0.5-0.1,2.5-0.6,3.4,0
								c0.8,0.5,1.4,1.6,1.5,2c0,0.1,0,0.2-0.1,0.2c-0.5,0.3-2.2,1.4-3.9,0.4c-0.9-0.5-1-0.6-1-0.6
								C1185.3,627.1,1185.3,627.3,1185.1,627.4z"/>
						</g>
					</g>
					<path class="st5" d="M1187.6,641.5h-4.3c-1.4,0-2.5-1.1-2.5-2.5v-3.1c0-1.4,1.1-2.5,2.5-2.5h4.3c1.4,0,2.5,1.1,2.5,2.5v3.1
						C1190.1,640.4,1189,641.5,1187.6,641.5z"/>
				</g>
				<g class="st9">
					<g>
						<g>
							<g>
								<path class="st5" d="M1193.3,631.4v3.2l2.1,0.8l2.4-0.8c0,0,1.9-0.5,1.9-1.6s0-3.5,0-3.5h-6.4
									C1193.3,629.5,1193.3,631.3,1193.3,631.4z"/>
							</g>
							<g>
								<path class="st5" d="M1195.4,635.6l-2.2-0.9v-5.3h6.6v3.6c0,0.5-0.3,1-1,1.4c-0.5,0.3-0.9,0.4-1,0.4L1195.4,635.6z
									 M1193.5,634.5l2,0.7l2.4-0.8c0,0,1.8-0.5,1.8-1.5v-3.3h-6.1v4.9L1193.5,634.5L1193.5,634.5z"/>
							</g>
						</g>
						<g>
							<g>
								<path class="st5" d="M1193.9,631.5h0.8v-0.6c0,0,0.9-0.2,0.8-0.8s2.1,2.7,4.8-0.9h-0.7c0,0,0-2.7-3.5-2.4s-3,3.9-3,3.9
									L1193.9,631.5z"/>
							</g>
							<g>
								<path class="st5" d="M1194.8,631.6h-1l-0.9-0.9l0,0c0-0.1-0.2-1.7,0.7-2.9c0.5-0.7,1.4-1.1,2.4-1.1c1.2-0.1,2.2,0.2,2.8,0.8
									c0.7,0.6,0.8,1.4,0.8,1.7h0.8l-0.2,0.2c-1,1.3-2,1.7-2.8,1.7c-0.9,0-1.6-0.5-1.9-0.7c0,0-0.1,0-0.1-0.1
									c0,0.4-0.5,0.7-0.8,0.8v0.5H1194.8z M1193.9,631.3h0.6v-0.6h0.1c0,0,0.7-0.1,0.7-0.6c0-0.1,0-0.2,0.1-0.2
									c0.1-0.1,0.2,0,0.5,0.2c0.7,0.5,2.3,1.6,4.1-0.7h-0.5v-0.1c0,0,0-0.9-0.8-1.6c-0.6-0.5-1.5-0.8-2.6-0.7
									c-1,0.1-1.7,0.4-2.2,1c-0.8,1-0.7,2.4-0.7,2.7L1193.9,631.3z"/>
							</g>
						</g>
						<g>
							<g>
								<path class="st5" d="M1193.5,632.3L1193.5,632.3c-0.5,0-0.8-0.4-0.8-0.8l0,0c0-0.5,0.4-0.8,0.8-0.8l0,0c0.5,0,0.8,0.5,0.8,1
									"/>
							</g>
							<g>
								<path class="st5" d="M1193.5,632.4c-0.5,0-1-0.4-1-1s0.4-1,1-1s1,0.6,1,1.1h-0.3c0-0.5-0.4-0.8-0.7-0.8
									c-0.4,0-0.7,0.3-0.7,0.7s0.3,0.7,0.7,0.7V632.4z"/>
							</g>
						</g>
						<g class="st7">
							<g>
								<path class="st5" d="M1193.4,633.1v1.5l2.2,0.9l2.1-0.9l-2,0.1c-0.2,0-0.4,0-0.6-0.1c-0.1,0-0.1,0-0.2-0.1
									c-0.4-0.2-0.8-0.5-1-0.8L1193.4,633.1z"/>
							</g>
						</g>
						<g>
							<g>
								<path class="st5" d="M1196.6,632.6h1.4C1198.1,632.6,1197.3,634.4,1196.6,632.6z"/>
							</g>
							<g>
								<path class="st5" d="M1197.3,633.5L1197.3,633.5c-0.3,0-0.5-0.3-0.7-0.9v-0.1h1.6v0.1
									C1198.1,632.6,1197.8,633.5,1197.3,633.5z M1196.7,632.6c0.2,0.4,0.4,0.7,0.6,0.7l0,0c0.3,0,0.5-0.4,0.6-0.7H1196.7z"/>
							</g>
						</g>
						<g class="st7">
							<path class="st5" d="M1194.9,629.6l-0.4,0.3c-0.1,0-0.6-0.2-0.6-0.3l0.3-1.1c0-0.1,0.7-0.9,0.7-0.9c0.4-0.1,2.1-0.5,2.8,0
								c0.7,0.5,1.1,1.4,1.3,1.7c0,0.1,0,0.2-0.1,0.2c-0.4,0.3-1.9,1.1-3.2,0.3c-0.7-0.4-0.9-0.5-0.8-0.5
								C1195.1,629.4,1195.1,629.6,1194.9,629.6z"/>
						</g>
					</g>
					<path class="st5" d="M1196.6,641.5h-2.8c-1.4,0-2.5-1.1-2.5-2.5v-1.8c0-1.4,1.1-2.5,2.5-2.5h2.8c1.4,0,2.5,1.1,2.5,2.5v1.8
						C1199.1,640.4,1198,641.5,1196.6,641.5z"/>
				</g>
			</g>
			<g>
				<g>
					<path class="st10" d="M844.4,706.2"/>
				</g>
				<g>
					<path class="st10" d="M820.5,706.2"/>
				</g>
				<g>
					<g>
						<polygon class="st6" points="812.3,694.4 832.9,615.7 853.6,694.4 						"/>
						<path class="st5" d="M855.1,695.6h-44.4l22.2-84.6L855.1,695.6z M813.8,693.2H852l-19.1-72.8L813.8,693.2z"/>
					</g>
					<g>
						<line class="st4" x1="832.7" y1="658.7" x2="832.7" y2="707"/>
						<rect x="831.5" y="658.7" class="st5" width="2.4" height="48.3"/>
					</g>
					<g>
						<line class="st4" x1="842.9" y1="674.6" x2="832.5" y2="685"/>
						
							<rect x="836.5" y="672.5" transform="matrix(0.7071 0.7071 -0.7071 0.7071 726.0598 -393.2054)" class="st5" width="2.4" height="14.7"/>
					</g>
					<g>
						<line class="st4" x1="826.4" y1="663.4" x2="833" y2="670"/>
						
							<rect x="825" y="665.6" transform="matrix(0.7072 0.7071 -0.7071 0.7072 714.3811 -391.3358)" class="st5" width="9.3" height="2.4"/>
					</g>
				</g>
			</g>
			<g class="st11">
				<g>
					<path class="st10" d="M1360.3,706"/>
				</g>
				<g>
					<path class="st10" d="M1331.8,706"/>
				</g>
				<g>
					<g>
						<polygon class="st6" points="1322.1,692.1 1346.6,598.6 1371.1,692.1 						"/>
						<path class="st5" d="M1372.9,693.5h-52.7l26.3-100.4L1372.9,693.5z M1323.9,690.6h45.4l-22.7-86.5L1323.9,690.6z"/>
					</g>
					<g>
						<line class="st4" x1="1346.3" y1="649.6" x2="1346.3" y2="707"/>
						<rect x="1344.9" y="649.6" class="st5" width="2.8" height="57.4"/>
					</g>
					<g>
						<line class="st4" x1="1358.4" y1="668.6" x2="1346.1" y2="680.9"/>
						
							<rect x="1350.9" y="666.1" transform="matrix(0.7071 0.7071 -0.7071 0.7071 873.2066 -758.5724)" class="st5" width="2.8" height="17.4"/>
					</g>
					<g>
						<line class="st4" x1="1338.8" y1="655.3" x2="1346.6" y2="663.1"/>
						
							<rect x="1337.1" y="657.8" transform="matrix(0.7072 0.7071 -0.7071 0.7072 859.296 -756.316)" class="st5" width="11.1" height="2.8"/>
					</g>
				</g>
			</g>
			<g>
				<g>
					<g>
						<polygon class="st6" points="1249.5,695.2 1270.1,616.5 1290.8,695.2 						"/>
						<path class="st5" d="M1292.3,696.4h-44.4l22.2-84.6L1292.3,696.4z M1251,694h38.2l-19.1-72.8L1251,694z"/>
					</g>
					<g>
						<line class="st4" x1="1269.9" y1="659.5" x2="1269.9" y2="707.8"/>
						<rect x="1268.7" y="659.5" class="st5" width="2.4" height="48.3"/>
					</g>
					<g>
						<line class="st4" x1="1280.1" y1="675.5" x2="1269.8" y2="685.8"/>
						
							<rect x="1273.7" y="673.4" transform="matrix(0.7071 0.7071 -0.7071 0.7071 854.7593 -702.1344)" class="st5" width="2.4" height="14.7"/>
					</g>
					<g>
						<line class="st4" x1="1263.6" y1="664.3" x2="1270.2" y2="670.8"/>
						
							<rect x="1262.1" y="666.4" transform="matrix(0.7071 0.7071 -0.7071 0.7071 843.0825 -700.1927)" class="st5" width="9.3" height="2.4"/>
					</g>
				</g>
			</g>
			<g>
				<path class="st6" d="M1205.6,481.7h-48.8c-23,11.7-8.4,0.8-8.4-8.4v-20.2c0-4.6,3.8-8.4,8.4-8.4h48.8c4.6,0,8.4,3.8,8.4,8.4
					v20.2C1214,477.9,1210.2,481.7,1205.6,481.7z"/>
				<path class="st5" d="M1144.6,489.2c-1,0-1.7-0.3-2.3-0.9c-1.8-1.8-0.5-4.2,0.9-6.9c1.2-2.4,2.8-5.5,2.8-8v-20.3
					c0-6,4.8-10.8,10.8-10.8h48.8c6,0,10.8,4.8,10.8,10.8v20.2c0,6-4.8,10.8-10.8,10.8h-48.2
					C1150.2,487.7,1146.7,489.2,1144.6,489.2z M1156.8,447.1c-3.3,0-6,2.7-6,6v20.2c0,3.7-1.9,7.5-3.3,10.2c1.7-0.7,4.2-1.9,8.3-3.9
					l0.5-0.3h49.3c3.3,0,6-2.7,6-6v-20.2c0-3.3-2.7-6-6-6L1156.8,447.1L1156.8,447.1z"/>
			</g>
			<g>
				<circle class="st6" cx="948.3" cy="417.1" r="39.5"/>
				<path class="st5" d="M948.3,459c-23.1,0-41.9-18.8-41.9-41.9s18.8-41.9,41.9-41.9s41.9,18.8,41.9,41.9S971.4,459,948.3,459z
					 M948.3,379.9c-20.5,0-37.1,16.7-37.1,37.1s16.7,37.1,37.1,37.1c20.5,0,37.1-16.7,37.1-37.1S968.8,379.9,948.3,379.9z"/>
			</g>
			<g class="st7">
				<path class="st5" d="M1211.7,455.1l-36.9,24.6l28.7,0.5c4.9,0.1,8.9-3.8,8.9-8.7C1212.6,455.2,1212.1,455.6,1211.7,455.1z"/>
			</g>
			<g>
				<path class="st6" d="M1187.9,456.4h-48.8c-23,11.7-8.4,0.8-8.4-8.4v-20.2c0-4.6,3.8-8.4,8.4-8.4h48.8c4.6,0,8.4,3.8,8.4,8.4V448
					C1196.3,452.6,1192.5,456.4,1187.9,456.4z"/>
				<path class="st5" d="M1126.9,463.9c-1,0-1.7-0.3-2.3-0.9c-1.8-1.8-0.5-4.2,0.9-6.9c1.2-2.4,2.8-5.5,2.8-8v-20.2
					c0-6,4.8-10.8,10.8-10.8h48.8c6,0,10.8,4.8,10.8,10.8v20.2c0,6-4.8,10.8-10.8,10.8h-48.2C1132.6,462.4,1129,463.9,1126.9,463.9z
					 M1139.1,421.8c-3.3,0-6,2.7-6,6V448c0,3.7-1.9,7.5-3.3,10.2c1.7-0.7,4.2-1.9,8.3-3.9l0.5-0.3h49.3c3.3,0,6-2.7,6-6v-20.2
					c0-3.3-2.7-6-6-6L1139.1,421.8L1139.1,421.8z"/>
			</g>
			<g class="st7">
				<path class="st5" d="M1168.6,421.1l25.2,36.4v-28.7c0-4.9-4-8.8-8.8-8.7C1168.6,420.3,1169,420.7,1168.6,421.1z"/>
			</g>
			<g>
				<path class="st8" d="M642.7,702.8"/>
			</g>
			<g>
				<path class="st8" d="M1482.6,702.8"/>
			</g>
			<g class="st11">
				<g>
					<path class="st10" d="M1399.6,706.3"/>
				</g>
				<g>
					<path class="st10" d="M1380.5,706.3"/>
				</g>
				<g>
					<g>
						<polygon class="st6" points="1373.9,697 1390.4,634.3 1406.8,697 						"/>
						<path class="st5" d="M1408.1,697.9h-35.4l17.7-67.4L1408.1,697.9z M1375.2,696h30.4l-15.2-58L1375.2,696z"/>
					</g>
					<g>
						<line class="st4" x1="1390.2" y1="668.5" x2="1390.2" y2="707"/>
						<rect x="1389.3" y="668.5" class="st5" width="1.9" height="38.5"/>
					</g>
					<g>
						<line class="st4" x1="1398.4" y1="681.2" x2="1390.1" y2="689.5"/>
						
							<rect x="1393.2" y="679.5" transform="matrix(0.7071 0.7071 -0.7071 0.7071 892.9964 -785.0999)" class="st5" width="1.9" height="11.7"/>
					</g>
					<g>
						<line class="st4" x1="1385.2" y1="672.3" x2="1390.4" y2="677.5"/>
						
							<rect x="1384" y="674" transform="matrix(0.7072 0.7071 -0.7071 0.7072 883.6269 -783.5237)" class="st5" width="7.4" height="1.9"/>
					</g>
				</g>
			</g>
			<path class="st12" d="M1184.8,434.3h-42.3c-1.7,0-3-1.3-3-3l0,0c0-1.7,1.3-3,3-3h42.3c1.7,0,3,1.3,3,3l0,0
				C1187.8,433,1186.5,434.3,1184.8,434.3z"/>
			<path class="st12" d="M1184.8,444h-42.3c-1.7,0-3-1.3-3-3l0,0c0-1.7,1.3-3,3-3h42.3c1.7,0,3,1.3,3,3l0,0
				C1187.8,442.6,1186.5,444,1184.8,444z"/>
			<path class="st12" d="M1202.8,462h-42.3c-1.7,0-3-1.3-3-3l0,0c0-1.7,1.3-3,3-3h42.3c1.7,0,3,1.3,3,3l0,0
				C1205.8,460.6,1204.5,462,1202.8,462z"/>
			<path class="st12" d="M1202.8,471h-42.3c-1.7,0-3-1.3-3-3l0,0c0-1.7,1.3-3,3-3h42.3c1.7,0,3,1.3,3,3l0,0
				C1205.8,469.6,1204.5,471,1202.8,471z"/>
		</g>
		<g>
			<g>
				<g>
					<path class="st6" d="M931.2,419.3v19.6l12.7,4.8l14.5-4.8c0,0,11.3-3,11.3-9.9s0-21,0-21h-38.5
						C931.2,408,931.2,419.1,931.2,419.3z"/>
				</g>
				<g>
					<path class="st5" d="M943.9,444.7l-13.5-5.2v-32.3h40.2V429c0,3.2-2.1,6-6.1,8.3c-2.8,1.6-5.5,2.4-5.8,2.4L943.9,444.7z
						 M932,438.4l11.9,4.5l14.3-4.8c0.1,0,10.7-2.9,10.7-9.1v-20.1h-36.8L932,438.4L932,438.4z"/>
				</g>
			</g>
			<g>
				<g>
					<path class="st6" d="M934.4,419.8h4.8v-3.7c0,0,5.3-0.9,4.7-4.7c-0.6-3.8,13,16.2,29.2-5.4h-4.2c0,0-0.2-16.4-21.4-14.8
						c-21.2,1.6-18.2,23.5-18.2,23.5L934.4,419.8z"/>
				</g>
				<g>
					<path class="st5" d="M940.1,420.6h-6l-5.5-5.5v-0.3c-0.1-0.4-1.3-10.4,4.5-17.6c3.3-4.1,8.2-6.4,14.5-6.9
						c7.5-0.6,13.3,1,17.2,4.6c4,3.6,4.9,8.3,5.1,10.2h5.1l-1,1.4c-6.1,8.1-11.9,10.6-16.7,10.6c-5.3,0-9.4-2.9-11.7-4.4
						c-0.2-0.1-0.4-0.3-0.6-0.4c-0.2,2.7-2.8,4.1-4.8,4.6L940.1,420.6L940.1,420.6z M934.8,418.9h3.6v-3.6l0.7-0.1
						c0.2,0,4.5-0.8,4-3.8c-0.1-0.8,0.2-1.1,0.5-1.3c0.7-0.4,1.4,0,2.8,1c4.2,2.9,13.7,9.5,25-4.4h-3.3v-0.8c0-0.1-0.2-5.7-4.6-9.8
						c-3.6-3.3-8.9-4.7-15.9-4.1c-5.9,0.4-10.4,2.5-13.3,6.2c-4.8,6-4.3,14.4-4.1,16.1L934.8,418.9z"/>
				</g>
			</g>
			<g>
				<g>
					<path class="st6" d="M932.1,424.9L932.1,424.9c-2.8,0-5.1-2.3-5.1-5.1l0,0c0-2.8,2.3-5.1,5.1-5.1l0,0c2.8,0,5.1,3.1,5.1,5.9"/>
				</g>
				<g>
					<path class="st5" d="M932.1,425.7c-3.3,0-5.9-2.7-5.9-5.9s2.7-5.9,5.9-5.9c3.4,0,5.9,3.6,5.9,6.8h-1.7c0-2.8-2.3-5.1-4.3-5.1
						c-2.3,0-4.2,1.9-4.2,4.2c0,2.3,1.9,4.2,4.2,4.2L932.1,425.7L932.1,425.7z"/>
				</g>
			</g>
			<g class="st7">
				<g>
					<path class="st5" d="M931.4,429.5v9.2l13.4,5.5l12.7-5.5l-12.3,0.7c-1.3,0.1-2.6,0-3.9-0.4c-0.4-0.1-0.7-0.2-1.1-0.3
						c-2.5-0.9-4.6-2.7-6.1-5L931.4,429.5z"/>
				</g>
			</g>
			<g>
				<g>
					<path class="st6" d="M951.3,426.5h8.5C959.8,426.5,955.2,437.8,951.3,426.5z"/>
				</g>
				<g>
					<path class="st5" d="M955.2,431.9L955.2,431.9c-1.7,0-3.1-1.8-4.4-5.3l-0.2-0.6h9.8l-0.2,0.6
						C960.1,426.9,958,431.9,955.2,431.9z M951.9,426.9c1,2.7,2.2,4.2,3.3,4.2l0,0c1.6,0,3.2-2.6,3.9-4.2H951.9z"/>
				</g>
			</g>
			<g class="st7">
				<path class="st5" d="M940.8,408.8l-2.1,2c-0.7,0.1-3.8-1.4-3.6-2l1.6-6.7c0.1-0.3,4.1-5.4,4.5-5.5c2.5-0.6,12.7-2.8,17.1,0.1
					c4.1,2.7,6.9,8.3,7.8,10.3c0.2,0.4,0.1,0.9-0.3,1.2c-2.4,1.7-11.2,6.9-19.5,1.9c-4.3-2.6-5.3-3.2-5-3.1
					C941.9,407.4,941.7,408.7,940.8,408.8z"/>
			</g>
		</g>
	</g>
	<path class="st5" d="M1107.8,508.2H994.5c-3.7,0-6.7-3-6.7-6.7l0,0c0-3.7,3-6.7,6.7-6.7h113.3c3.7,0,6.7,3,6.7,6.7l0,0
		C1114.5,505.2,1111.5,508.2,1107.8,508.2z"/>
	<polygon class="st13" points="1104.5,702.9 997.1,524.9 997.1,508.2 1103.1,508.2 	"/>
	<path class="st6" d="M1104.7,503.4H994.3c-0.8,0-1.5-0.7-1.5-1.5v-1c0-0.8,0.7-1.5,1.5-1.5h110.4c0.8,0,1.5,0.7,1.5,1.5v1
		C1106.2,502.7,1105.6,503.4,1104.7,503.4z"/>
</g>
</svg>
