<?xml version="1.0" encoding="utf-8"?>
<!-- Generator: Adobe Illustrator 19.1.0, SVG Export Plug-In . SVG Version: 6.00 Build 0)  -->
<svg version="1.0" id="Layer_1" xmlns="http://www.w3.org/2000/svg" xmlns:xlink="http://www.w3.org/1999/xlink" x="0px" y="0px"
	 viewBox="0 0 1256 592" style="enable-background:new 0 0 1256 592;" xml:space="preserve">
<style type="text/css">
	.st0{opacity:0.99;clip-path:url(#SVGID_2_);}
	.st1{fill:#05AA9E;}
	.st2{fill:#E4087E;}
	.st3{fill:#F7B132;}
	.st4{fill:#FFFFFF;}
	.st5{fill:#2BACE2;}
	.st6{opacity:0.1;}
	.st7{fill:#FFFFFF;stroke:#2BACE2;stroke-width:5.6693;stroke-miterlimit:10;}
	.st8{opacity:0.2;}
	.st9{fill:#FFFFFF;stroke:#2BACE2;stroke-width:2.8346;stroke-miterlimit:10;}
	.st10{opacity:0.3;}
	.st11{opacity:0.1;fill:#2BACE2;}
</style>
<g>
	<defs>
		<rect id="SVGID_1_" x="189.1" y="10.5" width="1069.5" height="564.2"/>
	</defs>
	<clipPath id="SVGID_2_">
		<use xlink:href="#SVGID_1_"  style="overflow:visible;"/>
	</clipPath>
	<g class="st0">
		<g>
			<path class="st1" d="M728.3,865.7c-5.4,0-10.8-0.1-16.3-0.3c-51.5-2.1-101.1-14.3-147.3-36.2c-44.7-21.1-84.3-50.3-117.9-86.9
				c-33.6-36.5-59.4-78.5-76.8-124.7c-17.9-47.9-26-98.3-23.8-149.8l0,0c2.1-51.5,14.3-101.1,36.2-147.3
				c21.1-44.7,50.3-84.3,86.9-117.9s78.5-59.4,124.7-76.8c47.9-17.9,98.3-26,149.8-23.8c51.5,2.1,101.1,14.3,147.3,36.2
				c44.7,21.1,84.3,50.3,117.9,86.9c33.6,36.5,59.4,78.5,76.8,124.7c17.9,47.9,26,98.3,23.8,149.8c-2.1,51.5-14.3,101.1-36.2,147.3
				c-21.1,44.7-50.3,84.3-86.9,117.9c-36.5,33.6-78.5,59.4-124.7,76.8C819,857.6,774.2,865.7,728.3,865.7z M348.6,467.9l2.4,0.1
				c-2.1,50.9,5.8,100.7,23.5,148c17.1,45.7,42.6,87.1,75.8,123.2c33.2,36.1,72.4,64.9,116.5,85.8c45.7,21.6,94.6,33.6,145.5,35.7
				c50.9,2.1,100.7-5.8,148-23.5c45.7-17.1,87.1-42.6,123.2-75.8c36.1-33.2,64.9-72.4,85.8-116.5c21.6-45.7,33.6-94.6,35.7-145.5
				s-5.8-100.7-23.5-148c-17.1-45.7-42.6-87.1-75.8-123.2c-33.2-36.1-72.4-64.9-116.5-85.8c-45.7-21.6-94.6-33.6-145.5-35.7
				c-50.9-2.1-100.7,5.8-148,23.5c-45.7,17.1-87.1,42.6-123.2,75.8s-64.9,72.4-85.8,116.5c-21.6,45.7-33.6,94.6-35.7,145.5
				L348.6,467.9z"/>
		</g>
		<g>
			<path class="st2" d="M727.9,754.7c-72.4,0-140.5-28.2-191.7-79.4C485,624.1,456.8,556,456.8,483.6S485,343.2,536.2,292
				c51.2-51.2,119.3-79.4,191.7-79.4c72.4,0,140.5,28.2,191.7,79.4c51.2,51.2,79.4,119.3,79.4,191.7s-28.2,140.5-79.4,191.7
				C868.4,726.5,800.3,754.7,727.9,754.7z M727.9,217.3c-71.1,0-138,27.7-188.3,78c-50.3,50.3-78,117.2-78,188.3s27.7,138,78,188.3
				c50.3,50.3,117.2,78,188.3,78s138-27.7,188.3-78c50.3-50.3,78-117.2,78-188.3s-27.7-138-78-188.3
				C865.9,245,799,217.3,727.9,217.3z"/>
		</g>
		<g>
			<path class="st3" d="M727.9,662.6c-98.7,0-179-80.3-179-179s80.3-179,179-179s179,80.3,179,179S826.6,662.6,727.9,662.6z
				 M727.9,309.4c-96.1,0-174.2,78.1-174.2,174.2c0,96.1,78.1,174.2,174.2,174.2c96.1,0,174.2-78.1,174.2-174.2
				C902.1,387.6,824,309.4,727.9,309.4z"/>
		</g>
	</g>
</g>
<g>
	<g>
		<g>
			<line class="st4" x1="1178.6" y1="577.2" x2="271.4" y2="577.2"/>
			<path class="st5" d="M1178.6,579.6H271.4l0,0c0-2.6,2.1-4.8,4.8-4.8h897.6C1176.4,574.8,1178.6,576.9,1178.6,579.6L1178.6,579.6z
				"/>
			<path class="st5" d="M256.9,579.6h-20l0,0c0-2.6,0-4.8,0.1-4.8h19.8C256.8,574.8,256.9,576.9,256.9,579.6L256.9,579.6z"/>
			<path class="st5" d="M222.4,579.6h-20l0,0c0-2.6,0-4.8,0.1-4.8h19.8C222.3,574.8,222.4,576.9,222.4,579.6L222.4,579.6z"/>
			<path class="st5" d="M177.2,579.6H20.1l0,0c0-2.6,0.3-4.8,0.7-4.8h155.8C176.9,574.8,177.2,576.9,177.2,579.6L177.2,579.6z"/>
		</g>
		<g>
			<g>
				<g>
					<g>
						<rect x="556.5" y="453.4" class="st4" width="359.4" height="123.8"/>
						<path class="st5" d="M918.3,579.5H554.1V451h364.2V579.5z M558.9,574.7h354.7v-119H558.9V574.7z"/>
					</g>
					<g class="st6">
						<path class="st5" d="M556.5,453.4v18.9h357.8v-18.9C914.3,453.4,555.7,453.4,556.5,453.4z"/>
					</g>
					<g class="st6">
						<polygon class="st5" points="787.8,454.5 787.8,576.7 915.9,576.7 						"/>
					</g>
					<rect x="542.3" y="421.5" class="st7" width="385.3" height="31.3"/>
					<rect x="682.3" y="378.4" class="st7" width="105" height="198"/>
					<g>
						<path class="st4" d="M750.7,575h-29v-51.3h8.7c11.2,0,20.4,9.1,20.4,20.4V575z"/>
						<path class="st5" d="M751.9,576.2h-31.4v-53.7h13.1c10.1,0,18.3,8.2,18.3,18.3V576.2z M722.8,573.9h26.7v-33
							c0-8.8-7.1-15.9-15.9-15.9h-10.7V573.9z"/>
					</g>
				</g>
				<g>
					<ellipse class="st4" cx="736.9" cy="445.9" rx="7.6" ry="11.6"/>
					<path class="st5" d="M736.9,458.7c-4.9,0-8.8-5.6-8.8-12.8c0-7.2,3.8-12.8,8.8-12.8c4.9,0,8.8,5.6,8.8,12.8
						C745.6,453.1,741.8,458.7,736.9,458.7z M736.9,435.5c-3.5,0-6.4,4.8-6.4,10.4c0,5.7,2.9,10.4,6.4,10.4s6.4-4.8,6.4-10.4
						C743.2,440.3,740.3,435.5,736.9,435.5z"/>
				</g>
				<g>
					<g>
						<rect x="630.6" y="486.7" class="st4" width="32" height="25.8"/>
						<path class="st5" d="M663.8,513.7h-34.3v-28.2h34.3V513.7z M631.8,511.3h29.6v-23.4h-29.6V511.3z"/>
					</g>
					<g class="st6">
						<path class="st5" d="M630.6,486.7l32,25.8h-32C630.6,512.5,631.1,486.3,630.6,486.7z"/>
					</g>
				</g>
				<g>
					<g>
						<rect x="808.1" y="486.7" class="st4" width="32" height="25.8"/>
						<path class="st5" d="M841.2,513.7h-34.3v-28.2h34.3V513.7z M809.3,511.3h29.6v-23.4h-29.6V511.3z"/>
					</g>
					<g class="st6">
						<path class="st5" d="M808.1,486.7l32,25.8h-32C808.1,512.5,808.5,486.3,808.1,486.7z"/>
					</g>
				</g>
				<g>
					<g>
						<rect x="861" y="486.7" class="st4" width="32" height="25.8"/>
						<path class="st5" d="M894.2,513.7h-34.3v-28.2h34.3V513.7z M862.2,511.3h29.6v-23.4h-29.6V511.3z"/>
					</g>
					<g class="st6">
						<path class="st5" d="M861,486.7l32,25.8h-32C861,512.5,861.5,486.3,861,486.7z"/>
					</g>
				</g>
				<g>
					<g>
						<rect x="578.8" y="486.7" class="st4" width="32" height="25.8"/>
						<path class="st5" d="M611.9,513.7h-34.3v-28.2h34.3V513.7z M580,511.3h29.6v-23.4H580V511.3z"/>
					</g>
					<g class="st6">
						<path class="st5" d="M578.8,486.7l32,25.8h-32C578.8,512.5,579.2,486.3,578.8,486.7z"/>
					</g>
				</g>
				<g>
					<g>
						<path class="st5" d="M741.5,373.5V331c0-0.7-0.5-1.2-1.2-1.2h-0.4c-0.7,0-1.2,0.5-1.2,1.2v42.5c0,0.7,0.5,1.2,1.2,1.2h0.4
							C741,374.7,741.5,374.1,741.5,373.5z"/>
					</g>
					<g>
						<path class="st4" d="M740.4,352.4c0,0-13.8-1.8-19.3,0.8c-4.7,2.3-19.1-0.8-19.1-0.8v-18.5c0,0,14.8,2.8,19.9,1.7
							c4.4-1,18.5-1.7,18.5-1.7V352.4z"/>
						<path class="st5" d="M715.6,355.2c-5.8,0-12.7-1.5-13.8-1.7l-0.9-0.2v-20.9l1.4,0.3c0.1,0,14.6,2.8,19.4,1.7
							c4.5-1,18.1-1.7,18.7-1.7l1.3-0.1v21.1l-1.3-0.2c-0.1,0-13.5-1.7-18.7,0.7C720.2,355,718,355.2,715.6,355.2z M703.2,351.4
							c4.5,0.9,14,2.3,17.4,0.7c4.8-2.3,15-1.5,18.7-1.1v-15.9c-3.5,0.2-13.5,0.8-17,1.6c-4.4,1-15.1-0.7-19-1.4V351.4z"/>
					</g>
					<g class="st6">
						<polygon class="st5" points="739,334.9 703.4,351.7 715.4,354.5 722.7,352.5 740.4,352.4 						"/>
					</g>
				</g>
				<g class="st6">
					<path class="st5" d="M722.6,523.7V575h13.1v-51.6C735.8,523.4,722.6,523.1,722.6,523.7z"/>
				</g>
				<g class="st8">
					<g>
						<g>
							<g>
								<path class="st5" d="M813.5,501.3v3.9l2.5,1l2.9-1c0,0,2.2-0.6,2.2-2c0-1.4,0-4.1,0-4.1h-7.6
									C813.5,499.1,813.5,501.3,813.5,501.3z"/>
							</g>
							<g>
								<path class="st5" d="M816,506.3l-2.7-1v-6.4h7.9v4.3c0,0.6-0.4,1.2-1.2,1.6c-0.5,0.3-1.1,0.5-1.1,0.5L816,506.3z
									 M813.7,505.1l2.3,0.9l2.8-0.9c0,0,2.1-0.6,2.1-1.8v-4h-7.3V505.1z"/>
							</g>
						</g>
						<g>
							<g>
								<path class="st5" d="M814.2,501.4h1v-0.7c0,0,1-0.2,0.9-0.9c-0.1-0.7,2.6,3.2,5.7-1.1H821c0,0,0-3.2-4.2-2.9
									c-4.2,0.3-3.6,4.6-3.6,4.6L814.2,501.4z"/>
							</g>
							<g>
								<path class="st5" d="M815.3,501.6h-1.2l-1.1-1.1l0-0.1c0-0.1-0.3-2.1,0.9-3.5c0.6-0.8,1.6-1.3,2.9-1.4
									c1.5-0.1,2.6,0.2,3.4,0.9c0.8,0.7,1,1.6,1,2h1l-0.2,0.3c-1.2,1.6-2.3,2.1-3.3,2.1c-1,0-1.9-0.6-2.3-0.9c0,0-0.1-0.1-0.1-0.1
									c0,0.5-0.6,0.8-0.9,0.9V501.6z M814.3,501.3h0.7v-0.7l0.1,0c0,0,0.9-0.2,0.8-0.7c0-0.2,0-0.2,0.1-0.3c0.1-0.1,0.3,0,0.5,0.2
									c0.8,0.6,2.7,1.9,4.9-0.9h-0.6l0-0.2c0,0,0-1.1-0.9-1.9c-0.7-0.6-1.8-0.9-3.1-0.8c-1.2,0.1-2,0.5-2.6,1.2
									c-1,1.2-0.8,2.8-0.8,3.2L814.3,501.3z"/>
							</g>
						</g>
						<g>
							<g>
								<path class="st5" d="M813.7,502.4L813.7,502.4c-0.5,0-1-0.4-1-1l0,0c0-0.5,0.4-1,1-1l0,0c0.5,0,1,0.6,1,1.2"/>
							</g>
							<g>
								<path class="st5" d="M813.7,502.6c-0.6,0-1.2-0.5-1.2-1.2c0-0.6,0.5-1.2,1.2-1.2c0.7,0,1.2,0.7,1.2,1.3h-0.3
									c0-0.6-0.5-1-0.8-1c-0.5,0-0.8,0.4-0.8,0.8s0.4,0.8,0.8,0.8V502.6z"/>
							</g>
						</g>
						<g class="st6">
							<g>
								<path class="st5" d="M813.6,503.3v1.8l2.6,1.1l2.5-1.1l-2.4,0.1c-0.3,0-0.5,0-0.8-0.1c-0.1,0-0.1,0-0.2-0.1
									c-0.5-0.2-0.9-0.5-1.2-1L813.6,503.3z"/>
							</g>
						</g>
						<g>
							<g>
								<path class="st5" d="M817.5,502.7h1.7C819.2,502.7,818.3,505,817.5,502.7z"/>
							</g>
							<g>
								<path class="st5" d="M818.3,503.8L818.3,503.8c-0.3,0-0.6-0.4-0.9-1l0-0.1h1.9l0,0.1C819.2,502.8,818.8,503.8,818.3,503.8z
									 M817.6,502.8c0.2,0.5,0.4,0.8,0.7,0.8l0,0c0.3,0,0.6-0.5,0.8-0.8H817.6z"/>
							</g>
						</g>
						<g class="st6">
							<path class="st5" d="M815.4,499.3l-0.4,0.4c-0.1,0-0.7-0.3-0.7-0.4l0.3-1.3c0-0.1,0.8-1.1,0.9-1.1c0.5-0.1,2.5-0.6,3.4,0
								c0.8,0.5,1.4,1.6,1.5,2c0,0.1,0,0.2-0.1,0.2c-0.5,0.3-2.2,1.4-3.9,0.4c-0.9-0.5-1-0.6-1-0.6
								C815.7,499,815.6,499.2,815.4,499.3z"/>
						</g>
					</g>
					<path class="st5" d="M818,513.4h-4.3c-1.4,0-2.5-1.1-2.5-2.5v-3.1c0-1.4,1.1-2.5,2.5-2.5h4.3c1.4,0,2.5,1.1,2.5,2.5v3.1
						C820.5,512.3,819.3,513.4,818,513.4z"/>
				</g>
				<g class="st8">
					<g>
						<g>
							<g>
								<path class="st5" d="M825.8,501.7v3.4l2.2,0.8l2.5-0.8c0,0,2-0.5,2-1.7s0-3.7,0-3.7h-6.7
									C825.8,499.7,825.8,501.6,825.8,501.7z"/>
							</g>
							<g>
								<path class="st5" d="M828,506.1l-2.4-0.9v-5.7h7v3.8c0,0.6-0.4,1.1-1.1,1.4c-0.5,0.3-1,0.4-1,0.4L828,506.1z M825.9,505
									l2.1,0.8l2.5-0.8c0,0,1.9-0.5,1.9-1.6v-3.5h-6.4V505z"/>
							</g>
						</g>
						<g>
							<g>
								<path class="st5" d="M826.4,501.8h0.8v-0.6c0,0,0.9-0.2,0.8-0.8c-0.1-0.7,2.3,2.8,5.1-0.9h-0.7c0,0,0-2.9-3.8-2.6
									c-3.7,0.3-3.2,4.1-3.2,4.1L826.4,501.8z"/>
							</g>
							<g>
								<path class="st5" d="M827.3,501.9h-1.1l-1-1l0,0c0-0.1-0.2-1.8,0.8-3.1c0.6-0.7,1.4-1.1,2.5-1.2c1.3-0.1,2.3,0.2,3,0.8
									c0.7,0.6,0.9,1.5,0.9,1.8h0.9l-0.2,0.2c-1.1,1.4-2.1,1.8-2.9,1.8c-0.9,0-1.7-0.5-2-0.8c0,0-0.1,0-0.1-0.1
									c0,0.5-0.5,0.7-0.8,0.8V501.9z M826.4,501.6h0.6V501l0.1,0c0,0,0.8-0.1,0.7-0.7c0-0.1,0-0.2,0.1-0.2c0.1-0.1,0.2,0,0.5,0.2
									c0.7,0.5,2.4,1.7,4.4-0.8h-0.6l0-0.1c0,0,0-1-0.8-1.7c-0.6-0.6-1.6-0.8-2.8-0.7c-1,0.1-1.8,0.4-2.3,1.1
									c-0.8,1-0.8,2.5-0.7,2.8L826.4,501.6z"/>
							</g>
						</g>
						<g>
							<g>
								<path class="st5" d="M825.9,502.7L825.9,502.7c-0.5,0-0.9-0.4-0.9-0.9l0,0c0-0.5,0.4-0.9,0.9-0.9l0,0c0.5,0,0.9,0.5,0.9,1"
									/>
							</g>
							<g>
								<path class="st5" d="M825.9,502.8c-0.6,0-1-0.5-1-1c0-0.6,0.5-1,1-1c0.6,0,1,0.6,1,1.2h-0.3c0-0.5-0.4-0.9-0.7-0.9
									c-0.4,0-0.7,0.3-0.7,0.7s0.3,0.7,0.7,0.7V502.8z"/>
							</g>
						</g>
						<g class="st6">
							<g>
								<path class="st5" d="M825.8,503.5v1.6l2.3,1l2.2-1l-2.1,0.1c-0.2,0-0.5,0-0.7-0.1c-0.1,0-0.1,0-0.2-0.1
									c-0.4-0.2-0.8-0.5-1.1-0.9L825.8,503.5z"/>
							</g>
						</g>
						<g>
							<g>
								<path class="st5" d="M829.3,502.9h1.5C830.8,502.9,830,504.9,829.3,502.9z"/>
							</g>
							<g>
								<path class="st5" d="M830,503.9L830,503.9c-0.3,0-0.5-0.3-0.8-0.9l0-0.1h1.7l0,0.1C830.8,503,830.5,503.9,830,503.9z
									 M829.4,503c0.2,0.5,0.4,0.7,0.6,0.7l0,0c0.3,0,0.6-0.5,0.7-0.7H829.4z"/>
							</g>
						</g>
					</g>
					<path class="st5" d="M829.4,512.4h-3.3c-1.4,0-2.5-1.1-2.5-2.5v-2.2c0-1.4,1.1-2.5,2.5-2.5h3.3c1.4,0,2.5,1.1,2.5,2.5v2.2
						C831.9,511.3,830.8,512.4,829.4,512.4z"/>
				</g>
				<g class="st8">
					<g>
						<g>
							<g>
								<path class="st5" d="M632.3,501.3v3.9l2.5,1l2.9-1c0,0,2.2-0.6,2.2-2c0-1.4,0-4.1,0-4.1h-7.6
									C632.3,499.1,632.3,501.3,632.3,501.3z"/>
							</g>
							<g>
								<path class="st5" d="M634.8,506.3l-2.7-1v-6.4h7.9v4.3c0,0.6-0.4,1.2-1.2,1.6c-0.5,0.3-1.1,0.5-1.1,0.5L634.8,506.3z
									 M632.5,505.1l2.3,0.9l2.8-0.9c0,0,2.1-0.6,2.1-1.8v-4h-7.3V505.1z"/>
							</g>
						</g>
						<g>
							<g>
								<path class="st5" d="M632.9,501.4h1v-0.7c0,0,1-0.2,0.9-0.9c-0.1-0.7,2.6,3.2,5.7-1.1h-0.8c0,0,0-3.2-4.2-2.9
									c-4.2,0.3-3.6,4.6-3.6,4.6L632.9,501.4z"/>
							</g>
							<g>
								<path class="st5" d="M634,501.6h-1.2l-1.1-1.1l0-0.1c0-0.1-0.3-2.1,0.9-3.5c0.6-0.8,1.6-1.3,2.9-1.4
									c1.5-0.1,2.6,0.2,3.4,0.9c0.8,0.7,1,1.6,1,2h1l-0.2,0.3c-1.2,1.6-2.3,2.1-3.3,2.1c-1,0-1.9-0.6-2.3-0.9c0,0-0.1-0.1-0.1-0.1
									c0,0.5-0.6,0.8-0.9,0.9V501.6z M633,501.3h0.7v-0.7l0.1,0c0,0,0.9-0.2,0.8-0.7c0-0.2,0-0.2,0.1-0.3c0.1-0.1,0.3,0,0.5,0.2
									c0.8,0.6,2.7,1.9,4.9-0.9h-0.6l0-0.2c0,0,0-1.1-0.9-1.9c-0.7-0.6-1.8-0.9-3.1-0.8c-1.2,0.1-2,0.5-2.6,1.2
									c-1,1.2-0.8,2.8-0.8,3.2L633,501.3z"/>
							</g>
						</g>
						<g>
							<g>
								<path class="st5" d="M632.5,502.4L632.5,502.4c-0.5,0-1-0.4-1-1l0,0c0-0.5,0.4-1,1-1l0,0c0.5,0,1,0.6,1,1.2"/>
							</g>
							<g>
								<path class="st5" d="M632.5,502.6c-0.6,0-1.2-0.5-1.2-1.2c0-0.6,0.5-1.2,1.2-1.2c0.7,0,1.2,0.7,1.2,1.3h-0.3
									c0-0.6-0.5-1-0.8-1c-0.5,0-0.8,0.4-0.8,0.8s0.4,0.8,0.8,0.8V502.6z"/>
							</g>
						</g>
						<g class="st6">
							<g>
								<path class="st5" d="M632.3,503.3v1.8l2.6,1.1l2.5-1.1l-2.4,0.1c-0.3,0-0.5,0-0.8-0.1c-0.1,0-0.1,0-0.2-0.1
									c-0.5-0.2-0.9-0.5-1.2-1L632.3,503.3z"/>
							</g>
						</g>
						<g>
							<g>
								<path class="st5" d="M636.2,502.7h1.7C637.9,502.7,637,505,636.2,502.7z"/>
							</g>
							<g>
								<path class="st5" d="M637,503.8C637,503.8,637,503.8,637,503.8c-0.3,0-0.6-0.4-0.9-1l0-0.1h1.9l0,0.1
									C638,502.8,637.6,503.8,637,503.8z M636.4,502.8c0.2,0.5,0.4,0.8,0.7,0.8c0,0,0,0,0,0c0.3,0,0.6-0.5,0.8-0.8H636.4z"/>
							</g>
						</g>
						<g class="st6">
							<path class="st5" d="M634.2,499.3l-0.4,0.4c-0.1,0-0.7-0.3-0.7-0.4l0.3-1.3c0-0.1,0.8-1.1,0.9-1.1c0.5-0.1,2.5-0.6,3.4,0
								c0.8,0.5,1.4,1.6,1.5,2c0,0.1,0,0.2-0.1,0.2c-0.5,0.3-2.2,1.4-3.9,0.4c-0.9-0.5-1-0.6-1-0.6
								C634.4,499,634.4,499.2,634.2,499.3z"/>
						</g>
					</g>
					<path class="st5" d="M636.7,513.4h-4.3c-1.4,0-2.5-1.1-2.5-2.5v-3.1c0-1.4,1.1-2.5,2.5-2.5h4.3c1.4,0,2.5,1.1,2.5,2.5v3.1
						C639.2,512.3,638.1,513.4,636.7,513.4z"/>
				</g>
				<g class="st8">
					<g>
						<g>
							<g>
								<path class="st5" d="M644.5,501.7v3.4l2.2,0.8l2.5-0.8c0,0,2-0.5,2-1.7s0-3.7,0-3.7h-6.7
									C644.5,499.7,644.5,501.6,644.5,501.7z"/>
							</g>
							<g>
								<path class="st5" d="M646.7,506.1l-2.4-0.9v-5.7h7v3.8c0,0.6-0.4,1.1-1.1,1.4c-0.5,0.3-1,0.4-1,0.4L646.7,506.1z M644.7,505
									l2.1,0.8l2.5-0.8c0,0,1.9-0.5,1.9-1.6v-3.5h-6.4V505z"/>
							</g>
						</g>
						<g>
							<g>
								<path class="st5" d="M645.1,501.8h0.8v-0.6c0,0,0.9-0.2,0.8-0.8c-0.1-0.7,2.3,2.8,5.1-0.9h-0.7c0,0,0-2.9-3.8-2.6
									c-3.7,0.3-3.2,4.1-3.2,4.1L645.1,501.8z"/>
							</g>
							<g>
								<path class="st5" d="M646.1,501.9H645l-1-1l0,0c0-0.1-0.2-1.8,0.8-3.1c0.6-0.7,1.4-1.1,2.5-1.2c1.3-0.1,2.3,0.2,3,0.8
									c0.7,0.6,0.9,1.5,0.9,1.8h0.9l-0.2,0.2c-1.1,1.4-2.1,1.8-2.9,1.8c-0.9,0-1.7-0.5-2-0.8c0,0-0.1,0-0.1-0.1
									c0,0.5-0.5,0.7-0.8,0.8V501.9z M645.2,501.6h0.6V501l0.1,0c0,0,0.8-0.1,0.7-0.7c0-0.1,0-0.2,0.1-0.2c0.1-0.1,0.2,0,0.5,0.2
									c0.7,0.5,2.4,1.7,4.4-0.8H651l0-0.1c0,0,0-1-0.8-1.7c-0.6-0.6-1.6-0.8-2.8-0.7c-1,0.1-1.8,0.4-2.3,1.1
									c-0.8,1-0.8,2.5-0.7,2.8L645.2,501.6z"/>
							</g>
						</g>
						<g>
							<g>
								<path class="st5" d="M644.7,502.7L644.7,502.7c-0.5,0-0.9-0.4-0.9-0.9l0,0c0-0.5,0.4-0.9,0.9-0.9l0,0c0.5,0,0.9,0.5,0.9,1"
									/>
							</g>
							<g>
								<path class="st5" d="M644.7,502.8c-0.6,0-1-0.5-1-1c0-0.6,0.5-1,1-1c0.6,0,1,0.6,1,1.2h-0.3c0-0.5-0.4-0.9-0.7-0.9
									c-0.4,0-0.7,0.3-0.7,0.7s0.3,0.7,0.7,0.7V502.8z"/>
							</g>
						</g>
						<g class="st6">
							<g>
								<path class="st5" d="M644.6,503.5v1.6l2.3,1l2.2-1l-2.1,0.1c-0.2,0-0.5,0-0.7-0.1c-0.1,0-0.1,0-0.2-0.1
									c-0.4-0.2-0.8-0.5-1.1-0.9L644.6,503.5z"/>
							</g>
						</g>
						<g>
							<g>
								<path class="st5" d="M648,502.9h1.5C649.5,502.9,648.7,504.9,648,502.9z"/>
							</g>
							<g>
								<path class="st5" d="M648.7,503.9C648.7,503.9,648.7,503.9,648.7,503.9c-0.3,0-0.5-0.3-0.8-0.9l0-0.1h1.7l0,0.1
									C649.6,503,649.2,503.9,648.7,503.9z M648.1,503c0.2,0.5,0.4,0.7,0.6,0.7c0,0,0,0,0,0c0.3,0,0.6-0.5,0.7-0.7H648.1z"/>
							</g>
						</g>
					</g>
					<path class="st5" d="M648.2,512.4h-3.3c-1.4,0-2.5-1.1-2.5-2.5v-2.2c0-1.4,1.1-2.5,2.5-2.5h3.3c1.4,0,2.5,1.1,2.5,2.5v2.2
						C650.7,511.3,649.5,512.4,648.2,512.4z"/>
				</g>
				<g class="st8">
					<g>
						<g>
							<g>
								<path class="st5" d="M602.5,501.7v3.4l2.2,0.8l2.5-0.8c0,0,2-0.5,2-1.7s0-3.7,0-3.7h-6.7
									C602.5,499.7,602.5,501.6,602.5,501.7z"/>
							</g>
							<g>
								<path class="st5" d="M604.7,506.1l-2.4-0.9v-5.7h7v3.8c0,0.6-0.4,1.1-1.1,1.4c-0.5,0.3-1,0.4-1,0.4L604.7,506.1z M602.7,505
									l2.1,0.8l2.5-0.8c0,0,1.9-0.5,1.9-1.6v-3.5h-6.4V505z"/>
							</g>
						</g>
						<g>
							<g>
								<path class="st5" d="M603.1,501.8h0.8v-0.6c0,0,0.9-0.2,0.8-0.8c-0.1-0.7,2.3,2.8,5.1-0.9h-0.7c0,0,0-2.9-3.8-2.6
									c-3.7,0.3-3.2,4.1-3.2,4.1L603.1,501.8z"/>
							</g>
							<g>
								<path class="st5" d="M604.1,501.9H603l-1-1l0,0c0-0.1-0.2-1.8,0.8-3.1c0.6-0.7,1.4-1.1,2.5-1.2c1.3-0.1,2.3,0.2,3,0.8
									c0.7,0.6,0.9,1.5,0.9,1.8h0.9l-0.2,0.2c-1.1,1.4-2.1,1.8-2.9,1.8c-0.9,0-1.7-0.5-2-0.8c0,0-0.1,0-0.1-0.1
									c0,0.5-0.5,0.7-0.8,0.8V501.9z M603.2,501.6h0.6V501l0.1,0c0,0,0.8-0.1,0.7-0.7c0-0.1,0-0.2,0.1-0.2c0.1-0.1,0.2,0,0.5,0.2
									c0.7,0.5,2.4,1.7,4.4-0.8H609l0-0.1c0,0,0-1-0.8-1.7c-0.6-0.6-1.6-0.8-2.8-0.7c-1,0.1-1.8,0.4-2.3,1.1
									c-0.8,1-0.8,2.5-0.7,2.8L603.2,501.6z"/>
							</g>
						</g>
						<g>
							<g>
								<path class="st5" d="M602.7,502.7L602.7,502.7c-0.5,0-0.9-0.4-0.9-0.9l0,0c0-0.5,0.4-0.9,0.9-0.9l0,0c0.5,0,0.9,0.5,0.9,1"
									/>
							</g>
							<g>
								<path class="st5" d="M602.7,502.8c-0.6,0-1-0.5-1-1c0-0.6,0.5-1,1-1c0.6,0,1,0.6,1,1.2h-0.3c0-0.5-0.4-0.9-0.7-0.9
									c-0.4,0-0.7,0.3-0.7,0.7s0.3,0.7,0.7,0.7V502.8z"/>
							</g>
						</g>
						<g class="st6">
							<g>
								<path class="st5" d="M602.6,503.5v1.6l2.3,1l2.2-1l-2.1,0.1c-0.2,0-0.5,0-0.7-0.1c-0.1,0-0.1,0-0.2-0.1
									c-0.4-0.2-0.8-0.5-1.1-0.9L602.6,503.5z"/>
							</g>
						</g>
						<g>
							<g>
								<path class="st5" d="M606,502.9h1.5C607.5,502.9,606.7,504.9,606,502.9z"/>
							</g>
							<g>
								<path class="st5" d="M606.7,503.9C606.7,503.9,606.7,503.9,606.7,503.9c-0.3,0-0.5-0.3-0.8-0.9l0-0.1h1.7l0,0.1
									C607.6,503,607.2,503.9,606.7,503.9z M606.1,503c0.2,0.5,0.4,0.7,0.6,0.7c0,0,0,0,0,0c0.3,0,0.6-0.5,0.7-0.7H606.1z"/>
							</g>
						</g>
					</g>
					<path class="st5" d="M606.2,512.4h-3.3c-1.4,0-2.5-1.1-2.5-2.5v-2.2c0-1.4,1.1-2.5,2.5-2.5h3.3c1.4,0,2.5,1.1,2.5,2.5v2.2
						C608.7,511.3,607.5,512.4,606.2,512.4z"/>
				</g>
				<g class="st8">
					<g>
						<g>
							<g>
								<path class="st5" d="M591.2,501.7v3.4l2.2,0.8l2.5-0.8c0,0,2-0.5,2-1.7s0-3.7,0-3.7h-6.7
									C591.2,499.7,591.2,501.6,591.2,501.7z"/>
							</g>
							<g>
								<path class="st5" d="M593.4,506.1l-2.4-0.9v-5.7h7v3.8c0,0.6-0.4,1.1-1.1,1.4c-0.5,0.3-1,0.4-1,0.4L593.4,506.1z M591.3,505
									l2.1,0.8l2.5-0.8c0,0,1.9-0.5,1.9-1.6v-3.5h-6.4V505z"/>
							</g>
						</g>
						<g>
							<g>
								<path class="st5" d="M591.7,501.8h0.8v-0.6c0,0,0.9-0.2,0.8-0.8c-0.1-0.7,2.3,2.8,5.1-0.9h-0.7c0,0,0-2.9-3.8-2.6
									c-3.7,0.3-3.2,4.1-3.2,4.1L591.7,501.8z"/>
							</g>
							<g>
								<path class="st5" d="M592.7,501.9h-1.1l-1-1l0,0c0-0.1-0.2-1.8,0.8-3.1c0.6-0.7,1.4-1.1,2.5-1.2c1.3-0.1,2.3,0.2,3,0.8
									c0.7,0.6,0.9,1.5,0.9,1.8h0.9l-0.2,0.2c-1.1,1.4-2.1,1.8-2.9,1.8c-0.9,0-1.7-0.5-2-0.8c0,0-0.1,0-0.1-0.1
									c0,0.5-0.5,0.7-0.8,0.8V501.9z M591.8,501.6h0.6V501l0.1,0c0,0,0.8-0.1,0.7-0.7c0-0.1,0-0.2,0.1-0.2c0.1-0.1,0.2,0,0.5,0.2
									c0.7,0.5,2.4,1.7,4.4-0.8h-0.6l0-0.1c0,0,0-1-0.8-1.7c-0.6-0.6-1.6-0.8-2.8-0.7c-1,0.1-1.8,0.4-2.3,1.1
									c-0.8,1-0.8,2.5-0.7,2.8L591.8,501.6z"/>
							</g>
						</g>
						<g>
							<g>
								<path class="st5" d="M591.3,502.7L591.3,502.7c-0.5,0-0.9-0.4-0.9-0.9l0,0c0-0.5,0.4-0.9,0.9-0.9l0,0c0.5,0,0.9,0.5,0.9,1"
									/>
							</g>
							<g>
								<path class="st5" d="M591.3,502.8c-0.6,0-1-0.5-1-1c0-0.6,0.5-1,1-1c0.6,0,1,0.6,1,1.2h-0.3c0-0.5-0.4-0.9-0.7-0.9
									c-0.4,0-0.7,0.3-0.7,0.7s0.3,0.7,0.7,0.7V502.8z"/>
							</g>
						</g>
						<g class="st6">
							<g>
								<path class="st5" d="M591.2,503.5v1.6l2.3,1l2.2-1l-2.1,0.1c-0.2,0-0.5,0-0.7-0.1c-0.1,0-0.1,0-0.2-0.1
									c-0.4-0.2-0.8-0.5-1.1-0.9L591.2,503.5z"/>
							</g>
						</g>
						<g>
							<g>
								<path class="st5" d="M594.7,502.9h1.5C596.2,502.9,595.4,504.9,594.7,502.9z"/>
							</g>
							<g>
								<path class="st5" d="M595.4,503.9C595.4,503.9,595.4,503.9,595.4,503.9c-0.3,0-0.5-0.3-0.8-0.9l0-0.1h1.7l0,0.1
									C596.2,503,595.9,503.9,595.4,503.9z M594.8,503c0.2,0.5,0.4,0.7,0.6,0.7c0,0,0,0,0,0c0.3,0,0.6-0.5,0.7-0.7H594.8z"/>
							</g>
						</g>
					</g>
					<path class="st5" d="M594.8,512.4h-3.3c-1.4,0-2.5-1.1-2.5-2.5v-2.2c0-1.4,1.1-2.5,2.5-2.5h3.3c1.4,0,2.5,1.1,2.5,2.5v2.2
						C597.3,511.3,596.2,512.4,594.8,512.4z"/>
				</g>
				<g class="st8">
					<g>
						<g>
							<g>
								<path class="st5" d="M582,500v4l2.6,1l2.9-1c0,0,2.3-0.6,2.3-2s0-4.3,0-4.3H582C582,497.7,582,499.9,582,500z"/>
							</g>
							<g>
								<path class="st5" d="M584.6,505.1l-2.7-1v-6.6h8.2v4.4c0,0.6-0.4,1.2-1.2,1.7c-0.6,0.3-1.1,0.5-1.2,0.5L584.6,505.1z
									 M582.2,503.8l2.4,0.9l2.9-1c0,0,2.2-0.6,2.2-1.8v-4.1h-7.5V503.8z"/>
							</g>
						</g>
						<g>
							<g>
								<path class="st5" d="M582.7,500.1h1v-0.7c0,0,1.1-0.2,1-1c-0.1-0.8,2.6,3.3,5.9-1.1h-0.8c0,0,0-3.3-4.4-3
									c-4.3,0.3-3.7,4.8-3.7,4.8L582.7,500.1z"/>
							</g>
							<g>
								<path class="st5" d="M583.8,500.2h-1.2l-1.1-1.1l0-0.1c0-0.1-0.3-2.1,0.9-3.6c0.7-0.8,1.7-1.3,3-1.4
									c1.5-0.1,2.7,0.2,3.5,0.9c0.8,0.7,1,1.7,1,2.1h1l-0.2,0.3c-1.2,1.6-2.4,2.1-3.4,2.1c-1.1,0-1.9-0.6-2.4-0.9
									c0,0-0.1-0.1-0.1-0.1c0,0.5-0.6,0.8-1,0.9V500.2z M582.7,499.9h0.7v-0.7l0.1,0c0,0,0.9-0.2,0.8-0.8c0-0.2,0-0.2,0.1-0.3
									c0.1-0.1,0.3,0,0.6,0.2c0.8,0.6,2.8,1.9,5.1-0.9h-0.7l0-0.2c0,0,0-1.2-0.9-2c-0.7-0.7-1.8-0.9-3.2-0.8
									c-1.2,0.1-2.1,0.5-2.7,1.3c-1,1.2-0.9,2.9-0.8,3.3L582.7,499.9z"/>
							</g>
						</g>
						<g>
							<g>
								<path class="st5" d="M582.2,501.1L582.2,501.1c-0.6,0-1-0.5-1-1l0,0c0-0.6,0.5-1,1-1l0,0c0.6,0,1,0.6,1,1.2"/>
							</g>
							<g>
								<path class="st5" d="M582.2,501.3c-0.7,0-1.2-0.5-1.2-1.2s0.5-1.2,1.2-1.2c0.7,0,1.2,0.7,1.2,1.4h-0.3c0-0.6-0.5-1-0.9-1
									c-0.5,0-0.9,0.4-0.9,0.9c0,0.5,0.4,0.9,0.9,0.9V501.3z"/>
							</g>
						</g>
						<g class="st6">
							<g>
								<path class="st5" d="M582.1,502v1.9l2.7,1.1l2.6-1.1l-2.5,0.1c-0.3,0-0.5,0-0.8-0.1c-0.1,0-0.1,0-0.2-0.1
									c-0.5-0.2-0.9-0.6-1.2-1L582.1,502z"/>
							</g>
						</g>
						<g>
							<g>
								<path class="st5" d="M586.1,501.4h1.7C587.8,501.4,586.9,503.7,586.1,501.4z"/>
							</g>
							<g>
								<path class="st5" d="M586.9,502.5C586.9,502.5,586.9,502.5,586.9,502.5c-0.3,0-0.6-0.4-0.9-1.1l0-0.1h2l0,0.1
									C587.9,501.5,587.5,502.5,586.9,502.5z M586.2,501.5c0.2,0.6,0.4,0.8,0.7,0.8c0,0,0,0,0,0c0.3,0,0.6-0.5,0.8-0.8H586.2z"/>
							</g>
						</g>
					</g>
					<path class="st5" d="M586.6,512.4h-4.6c-1.4,0-2.5-1.1-2.5-2.5v-3.3c0-1.4,1.1-2.5,2.5-2.5h4.6c1.4,0,2.5,1.1,2.5,2.5v3.3
						C589.1,511.3,588,512.4,586.6,512.4z"/>
				</g>
				<g class="st8">
					<g>
						<g>
							<g>
								<path class="st5" d="M655.3,501.7v3.4l2.2,0.8l2.5-0.8c0,0,2-0.5,2-1.7s0-3.7,0-3.7h-6.7
									C655.3,499.7,655.3,501.6,655.3,501.7z"/>
							</g>
							<g>
								<path class="st5" d="M657.5,506.1l-2.4-0.9v-5.7h7v3.8c0,0.6-0.4,1.1-1.1,1.4c-0.5,0.3-1,0.4-1,0.4L657.5,506.1z M655.5,505
									l2.1,0.8l2.5-0.8c0,0,1.9-0.5,1.9-1.6v-3.5h-6.4V505z"/>
							</g>
						</g>
						<g>
							<g>
								<path class="st5" d="M655.9,501.8h0.8v-0.6c0,0,0.9-0.2,0.8-0.8c-0.1-0.7,2.3,2.8,5.1-0.9h-0.7c0,0,0-2.9-3.8-2.6
									c-3.7,0.3-3.2,4.1-3.2,4.1L655.9,501.8z"/>
							</g>
							<g>
								<path class="st5" d="M656.9,501.9h-1.1l-1-1l0,0c0-0.1-0.2-1.8,0.8-3.1c0.6-0.7,1.4-1.1,2.5-1.2c1.3-0.1,2.3,0.2,3,0.8
									c0.7,0.6,0.9,1.5,0.9,1.8h0.9l-0.2,0.2c-1.1,1.4-2.1,1.8-2.9,1.8c-0.9,0-1.7-0.5-2-0.8c0,0-0.1,0-0.1-0.1
									c0,0.5-0.5,0.7-0.8,0.8V501.9z M656,501.6h0.6V501l0.1,0c0,0,0.8-0.1,0.7-0.7c0-0.1,0-0.2,0.1-0.2c0.1-0.1,0.2,0,0.5,0.2
									c0.7,0.5,2.4,1.7,4.4-0.8h-0.6l0-0.1c0,0,0-1-0.8-1.7c-0.6-0.6-1.6-0.8-2.8-0.7c-1,0.1-1.8,0.4-2.3,1.1
									c-0.8,1-0.8,2.5-0.7,2.8L656,501.6z"/>
							</g>
						</g>
						<g>
							<g>
								<path class="st5" d="M655.5,502.7L655.5,502.7c-0.5,0-0.9-0.4-0.9-0.9l0,0c0-0.5,0.4-0.9,0.9-0.9l0,0c0.5,0,0.9,0.5,0.9,1"
									/>
							</g>
							<g>
								<path class="st5" d="M655.5,502.8c-0.6,0-1-0.5-1-1c0-0.6,0.5-1,1-1c0.6,0,1,0.6,1,1.2h-0.3c0-0.5-0.4-0.9-0.7-0.9
									c-0.4,0-0.7,0.3-0.7,0.7s0.3,0.7,0.7,0.7V502.8z"/>
							</g>
						</g>
						<g class="st6">
							<g>
								<path class="st5" d="M655.4,503.5v1.6l2.3,1l2.2-1l-2.1,0.1c-0.2,0-0.5,0-0.7-0.1c-0.1,0-0.1,0-0.2-0.1
									c-0.4-0.2-0.8-0.5-1.1-0.9L655.4,503.5z"/>
							</g>
						</g>
						<g>
							<g>
								<path class="st5" d="M658.8,502.9h1.5C660.3,502.9,659.5,504.9,658.8,502.9z"/>
							</g>
							<g>
								<path class="st5" d="M659.5,503.9C659.5,503.9,659.5,503.9,659.5,503.9c-0.3,0-0.5-0.3-0.8-0.9l0-0.1h1.7l0,0.1
									C660.4,503,660,503.9,659.5,503.9z M658.9,503c0.2,0.5,0.4,0.7,0.6,0.7c0,0,0,0,0,0c0.3,0,0.6-0.5,0.7-0.7H658.9z"/>
							</g>
						</g>
					</g>
					<path class="st5" d="M659,512.4h-3.3c-1.4,0-2.5-1.1-2.5-2.5v-2.2c0-1.4,1.1-2.5,2.5-2.5h3.3c1.4,0,2.5,1.1,2.5,2.5v2.2
						C661.5,511.3,660.3,512.4,659,512.4z"/>
				</g>
				<g class="st8">
					<g>
						<g>
							<g>
								<path class="st5" d="M866.4,501.3v3.9l2.5,1l2.9-1c0,0,2.2-0.6,2.2-2c0-1.4,0-4.1,0-4.1h-7.6
									C866.4,499.1,866.4,501.3,866.4,501.3z"/>
							</g>
							<g>
								<path class="st5" d="M868.9,506.3l-2.7-1v-6.4h7.9v4.3c0,0.6-0.4,1.2-1.2,1.6c-0.5,0.3-1.1,0.5-1.1,0.5L868.9,506.3z
									 M866.6,505.1l2.3,0.9l2.8-0.9c0,0,2.1-0.6,2.1-1.8v-4h-7.3V505.1z"/>
							</g>
						</g>
						<g>
							<g>
								<path class="st5" d="M867,501.4h1v-0.7c0,0,1-0.2,0.9-0.9c-0.1-0.7,2.6,3.2,5.7-1.1h-0.8c0,0,0-3.2-4.2-2.9
									c-4.2,0.3-3.6,4.6-3.6,4.6L867,501.4z"/>
							</g>
							<g>
								<path class="st5" d="M868.2,501.6H867l-1.1-1.1l0-0.1c0-0.1-0.3-2.1,0.9-3.5c0.6-0.8,1.6-1.3,2.9-1.4
									c1.5-0.1,2.6,0.2,3.4,0.9c0.8,0.7,1,1.6,1,2h1l-0.2,0.3c-1.2,1.6-2.3,2.1-3.3,2.1c-1,0-1.9-0.6-2.3-0.9c0,0-0.1-0.1-0.1-0.1
									c0,0.5-0.6,0.8-0.9,0.9V501.6z M867.1,501.3h0.7v-0.7l0.1,0c0,0,0.9-0.2,0.8-0.7c0-0.2,0-0.2,0.1-0.3c0.1-0.1,0.3,0,0.5,0.2
									c0.8,0.6,2.7,1.9,4.9-0.9h-0.6l0-0.2c0,0,0-1.1-0.9-1.9c-0.7-0.6-1.8-0.9-3.1-0.8c-1.2,0.1-2,0.5-2.6,1.2
									c-1,1.2-0.8,2.8-0.8,3.2L867.1,501.3z"/>
							</g>
						</g>
						<g>
							<g>
								<path class="st5" d="M866.6,502.4L866.6,502.4c-0.5,0-1-0.4-1-1l0,0c0-0.5,0.4-1,1-1l0,0c0.5,0,1,0.6,1,1.2"/>
							</g>
							<g>
								<path class="st5" d="M866.6,502.6c-0.6,0-1.2-0.5-1.2-1.2c0-0.6,0.5-1.2,1.2-1.2c0.7,0,1.2,0.7,1.2,1.3h-0.3
									c0-0.6-0.5-1-0.8-1c-0.5,0-0.8,0.4-0.8,0.8s0.4,0.8,0.8,0.8V502.6z"/>
							</g>
						</g>
						<g class="st6">
							<g>
								<path class="st5" d="M866.4,503.3v1.8l2.6,1.1l2.5-1.1l-2.4,0.1c-0.3,0-0.5,0-0.8-0.1c-0.1,0-0.1,0-0.2-0.1
									c-0.5-0.2-0.9-0.5-1.2-1L866.4,503.3z"/>
							</g>
						</g>
						<g>
							<g>
								<path class="st5" d="M870.4,502.7h1.7C872,502.7,871.1,505,870.4,502.7z"/>
							</g>
							<g>
								<path class="st5" d="M871.1,503.8L871.1,503.8c-0.3,0-0.6-0.4-0.9-1l0-0.1h1.9l0,0.1C872.1,502.8,871.7,503.8,871.1,503.8z
									 M870.5,502.8c0.2,0.5,0.4,0.8,0.7,0.8c0,0,0,0,0,0c0.3,0,0.6-0.5,0.8-0.8H870.5z"/>
							</g>
						</g>
						<g class="st6">
							<path class="st5" d="M868.3,499.3l-0.4,0.4c-0.1,0-0.7-0.3-0.7-0.4l0.3-1.3c0-0.1,0.8-1.1,0.9-1.1c0.5-0.1,2.5-0.6,3.4,0
								c0.8,0.5,1.4,1.6,1.5,2c0,0.1,0,0.2-0.1,0.2c-0.5,0.3-2.2,1.4-3.9,0.4c-0.9-0.5-1-0.6-1-0.6
								C868.5,499,868.5,499.2,868.3,499.3z"/>
						</g>
					</g>
					<path class="st5" d="M870.8,513.4h-4.3c-1.4,0-2.5-1.1-2.5-2.5v-3.1c0-1.4,1.1-2.5,2.5-2.5h4.3c1.4,0,2.5,1.1,2.5,2.5v3.1
						C873.3,512.3,872.2,513.4,870.8,513.4z"/>
				</g>
				<g class="st8">
					<g>
						<g>
							<g>
								<path class="st5" d="M876.5,503.3v3.2l2.1,0.8l2.4-0.8c0,0,1.9-0.5,1.9-1.6s0-3.5,0-3.5h-6.4
									C876.5,501.4,876.5,503.2,876.5,503.3z"/>
							</g>
							<g>
								<path class="st5" d="M878.6,507.5l-2.2-0.9v-5.3h6.6v3.6c0,0.5-0.3,1-1,1.4c-0.5,0.3-0.9,0.4-1,0.4L878.6,507.5z
									 M876.7,506.4l2,0.7l2.4-0.8c0,0,1.8-0.5,1.8-1.5v-3.3h-6.1V506.4z"/>
							</g>
						</g>
						<g>
							<g>
								<path class="st5" d="M877.1,503.4h0.8v-0.6c0,0,0.9-0.2,0.8-0.8c-0.1-0.6,2.1,2.7,4.8-0.9h-0.7c0,0,0-2.7-3.5-2.4
									c-3.5,0.3-3,3.9-3,3.9L877.1,503.4z"/>
							</g>
							<g>
								<path class="st5" d="M878,503.5h-1l-0.9-0.9l0,0c0-0.1-0.2-1.7,0.7-2.9c0.5-0.7,1.4-1.1,2.4-1.1c1.2-0.1,2.2,0.2,2.8,0.8
									c0.7,0.6,0.8,1.4,0.8,1.7h0.8l-0.2,0.2c-1,1.3-2,1.7-2.8,1.7c-0.9,0-1.6-0.5-1.9-0.7c0,0-0.1,0-0.1-0.1
									c0,0.4-0.5,0.7-0.8,0.8V503.5z M877.1,503.2h0.6v-0.6l0.1,0c0,0,0.7-0.1,0.7-0.6c0-0.1,0-0.2,0.1-0.2c0.1-0.1,0.2,0,0.5,0.2
									c0.7,0.5,2.3,1.6,4.1-0.7h-0.5l0-0.1c0,0,0-0.9-0.8-1.6c-0.6-0.5-1.5-0.8-2.6-0.7c-1,0.1-1.7,0.4-2.2,1
									c-0.8,1-0.7,2.4-0.7,2.7L877.1,503.2z"/>
							</g>
						</g>
						<g>
							<g>
								<path class="st5" d="M876.7,504.2L876.7,504.2c-0.5,0-0.8-0.4-0.8-0.8l0,0c0-0.5,0.4-0.8,0.8-0.8l0,0c0.5,0,0.8,0.5,0.8,1"
									/>
							</g>
							<g>
								<path class="st5" d="M876.7,504.3c-0.5,0-1-0.4-1-1s0.4-1,1-1c0.6,0,1,0.6,1,1.1h-0.3c0-0.5-0.4-0.8-0.7-0.8
									c-0.4,0-0.7,0.3-0.7,0.7s0.3,0.7,0.7,0.7V504.3z"/>
							</g>
						</g>
						<g class="st6">
							<g>
								<path class="st5" d="M876.6,505v1.5l2.2,0.9l2.1-0.9l-2,0.1c-0.2,0-0.4,0-0.6-0.1c-0.1,0-0.1,0-0.2-0.1
									c-0.4-0.2-0.8-0.5-1-0.8L876.6,505z"/>
							</g>
						</g>
						<g>
							<g>
								<path class="st5" d="M879.8,504.5h1.4C881.3,504.5,880.5,506.3,879.8,504.5z"/>
							</g>
							<g>
								<path class="st5" d="M880.5,505.4L880.5,505.4c-0.3,0-0.5-0.3-0.7-0.9l0-0.1h1.6l0,0.1C881.3,504.5,881,505.4,880.5,505.4z
									 M879.9,504.5c0.2,0.4,0.4,0.7,0.6,0.7l0,0c0.3,0,0.5-0.4,0.6-0.7H879.9z"/>
							</g>
						</g>
						<g class="st6">
							<path class="st5" d="M878.1,501.5l-0.4,0.3c-0.1,0-0.6-0.2-0.6-0.3l0.3-1.1c0-0.1,0.7-0.9,0.7-0.9c0.4-0.1,2.1-0.5,2.8,0
								c0.7,0.5,1.1,1.4,1.3,1.7c0,0.1,0,0.2-0.1,0.2c-0.4,0.3-1.9,1.1-3.2,0.3c-0.7-0.4-0.9-0.5-0.8-0.5
								C878.3,501.3,878.3,501.5,878.1,501.5z"/>
						</g>
					</g>
					<path class="st5" d="M879.8,513.4H877c-1.4,0-2.5-1.1-2.5-2.5v-1.8c0-1.4,1.1-2.5,2.5-2.5h2.8c1.4,0,2.5,1.1,2.5,2.5v1.8
						C882.3,512.3,881.2,513.4,879.8,513.4z"/>
				</g>
			</g>
			<g>
				<g>
					<path class="st9" d="M527.6,578.1"/>
				</g>
				<g>
					<path class="st9" d="M503.7,578.1"/>
				</g>
				<g>
					<g>
						<polygon class="st4" points="495.5,566.3 516.1,487.6 536.8,566.3 						"/>
						<path class="st5" d="M538.3,567.5h-44.4l22.2-84.6L538.3,567.5z M497,565.1h38.2l-19.1-72.8L497,565.1z"/>
					</g>
					<g>
						<line class="st4" x1="515.9" y1="530.6" x2="515.9" y2="578.9"/>
						<rect x="514.7" y="530.6" class="st5" width="2.4" height="48.3"/>
					</g>
					<g>
						<line class="st4" x1="526.1" y1="546.5" x2="515.7" y2="556.9"/>
						
							<rect x="519.7" y="544.4" transform="matrix(0.7071 0.7071 -0.7071 0.7071 542.7035 -206.7461)" class="st5" width="2.4" height="14.7"/>
					</g>
					<g>
						<line class="st4" x1="509.6" y1="535.3" x2="516.2" y2="541.9"/>
						
							<rect x="508.2" y="537.4" transform="matrix(0.7072 0.7071 -0.7071 0.7072 531.0319 -204.887)" class="st5" width="9.3" height="2.4"/>
					</g>
				</g>
			</g>
			<g class="st10">
				<g>
					<path class="st9" d="M1043.5,577.9"/>
				</g>
				<g>
					<path class="st9" d="M1015,577.9"/>
				</g>
				<g>
					<g>
						<polygon class="st4" points="1005.3,564 1029.8,470.5 1054.3,564 						"/>
						<path class="st5" d="M1056.1,565.4h-52.7l26.3-100.4L1056.1,565.4z M1007.1,562.5h45.4l-22.7-86.5L1007.1,562.5z"/>
					</g>
					<g>
						<line class="st4" x1="1029.5" y1="521.5" x2="1029.5" y2="578.9"/>
						<rect x="1028.1" y="521.5" class="st5" width="2.8" height="57.4"/>
					</g>
					<g>
						<line class="st4" x1="1041.6" y1="540.5" x2="1029.3" y2="552.8"/>
						
							<rect x="1034.1" y="537.9" transform="matrix(0.7071 0.7071 -0.7071 0.7071 689.8094 -572.0871)" class="st5" width="2.8" height="17.4"/>
					</g>
					<g>
						<line class="st4" x1="1022" y1="527.2" x2="1029.8" y2="535"/>
						
							<rect x="1020.4" y="529.7" transform="matrix(0.7072 0.7071 -0.7071 0.7072 675.9359 -569.8563)" class="st5" width="11.1" height="2.8"/>
					</g>
				</g>
			</g>
			<g>
				<g>
					<g>
						<polygon class="st4" points="932.7,567.1 953.3,488.4 974,567.1 						"/>
						<path class="st5" d="M975.5,568.3h-44.4l22.2-84.6L975.5,568.3z M934.2,565.9h38.2l-19.1-72.8L934.2,565.9z"/>
					</g>
					<g>
						<line class="st4" x1="953.1" y1="531.4" x2="953.1" y2="579.7"/>
						<rect x="951.9" y="531.4" class="st5" width="2.4" height="48.3"/>
					</g>
					<g>
						<line class="st4" x1="963.3" y1="547.4" x2="953" y2="557.7"/>
						
							<rect x="957" y="545.2" transform="matrix(0.7071 0.7071 -0.7071 0.7071 671.3508 -515.6745)" class="st5" width="2.4" height="14.7"/>
					</g>
					<g>
						<line class="st4" x1="946.8" y1="536.2" x2="953.4" y2="542.7"/>
						
							<rect x="945.4" y="538.3" transform="matrix(0.7071 0.7071 -0.7071 0.7071 659.7253 -513.8143)" class="st5" width="9.3" height="2.4"/>
					</g>
				</g>
			</g>
			<g>
				<path class="st4" d="M888.8,353.6H840c-23,11.7-8.4,0.8-8.4-8.4V325c0-4.6,3.8-8.4,8.4-8.4h48.8c4.6,0,8.4,3.8,8.4,8.4v20.2
					C897.2,349.8,893.4,353.6,888.8,353.6z"/>
				<path class="st5" d="M827.8,361.1c-1,0-1.7-0.3-2.3-0.9c-1.8-1.8-0.5-4.2,0.9-6.9c1.2-2.4,2.8-5.5,2.8-8V325
					c0-6,4.8-10.8,10.8-10.8h48.8c6,0,10.8,4.8,10.8,10.8v20.2c0,6-4.8,10.8-10.8,10.8h-48.2C833.4,359.6,829.9,361.1,827.8,361.1z
					 M840,319c-3.3,0-6,2.7-6,6v20.2c0,3.7-1.9,7.5-3.3,10.2c1.7-0.7,4.2-1.9,8.3-3.9l0.5-0.3h49.3c3.3,0,6-2.7,6-6V325
					c0-3.3-2.7-6-6-6H840z"/>
			</g>
			<g>
				<circle class="st4" cx="631.5" cy="289" r="39.5"/>
				<path class="st5" d="M631.5,330.9c-23.1,0-41.9-18.8-41.9-41.9c0-23.1,18.8-41.9,41.9-41.9c23.1,0,41.9,18.8,41.9,41.9
					C673.4,312.1,654.6,330.9,631.5,330.9z M631.5,251.8c-20.5,0-37.1,16.7-37.1,37.1s16.7,37.1,37.1,37.1
					c20.5,0,37.1-16.7,37.1-37.1S652,251.8,631.5,251.8z"/>
			</g>
			<g class="st6">
				<path class="st5" d="M894.9,327l-36.9,24.6l28.7,0.5c4.9,0.1,8.9-3.8,8.9-8.7C895.8,327.1,895.3,327.5,894.9,327z"/>
			</g>
			<g>
				<path class="st4" d="M871.1,328.3h-48.8c-23,11.7-8.4,0.8-8.4-8.4v-20.2c0-4.6,3.8-8.4,8.4-8.4h48.8c4.6,0,8.4,3.8,8.4,8.4v20.2
					C879.5,324.5,875.7,328.3,871.1,328.3z"/>
				<path class="st5" d="M810.1,335.8c-1,0-1.7-0.3-2.3-0.9c-1.8-1.8-0.5-4.2,0.9-6.9c1.2-2.4,2.8-5.5,2.8-8v-20.2
					c0-6,4.8-10.8,10.8-10.8h48.8c6,0,10.8,4.8,10.8,10.8v20.2c0,6-4.8,10.8-10.8,10.8h-48.2C815.8,334.3,812.2,335.8,810.1,335.8z
					 M822.3,293.7c-3.3,0-6,2.7-6,6v20.2c0,3.7-1.9,7.5-3.3,10.2c1.7-0.7,4.2-1.9,8.3-3.9l0.5-0.3h49.3c3.3,0,6-2.7,6-6v-20.2
					c0-3.3-2.7-6-6-6H822.3z"/>
			</g>
			<g class="st6">
				<path class="st5" d="M851.8,293l25.2,36.4v-28.7c0-4.9-4-8.8-8.8-8.7C851.8,292.2,852.2,292.6,851.8,293z"/>
			</g>
			<g>
				<path class="st7" d="M325.9,574.7"/>
			</g>
			<g>
				<path class="st7" d="M1165.8,574.7"/>
			</g>
			<g>
				<g>
					<path class="st5" d="M872,327.7c-1-0.8-2.3-1.3-3.6-1.3c-1.5,0-3,0.6-4,1.7c-0.2,0.2-0.4,0.4-0.5,0.6c-1.3-1.7-3.4-2.6-5.5-2.2
						c-1.7,0.3-3.1,1.3-4.1,2.9c-1.4,2.2-1.5,4.4-0.3,6.4c0.6,1.1,1.4,2.1,2.4,3.2c1.9,2,4.1,3.9,6.9,5.9c0.2,0.1,0.4,0.2,0.6,0.2
						c0.3,0,0.5-0.2,0.6-0.2c2.6-1.8,4.6-3.6,6.4-5.4c1-1,2.1-2.3,2.9-3.8c0.4-0.7,0.8-1.6,0.7-2.6
						C874.5,330.9,873.7,329.1,872,327.7z M872.5,334.9c-0.7,1.4-1.8,2.5-2.7,3.5c-1.6,1.7-3.5,3.3-5.9,5c-2.6-1.9-4.7-3.7-6.4-5.5
						c-0.9-1-1.6-1.9-2.2-2.9c-0.9-1.5-0.8-3.1,0.3-4.8c0.7-1.2,1.8-1.9,3.1-2.1c0.2,0,0.5-0.1,0.8-0.1c1.5,0,2.9,0.9,3.7,2.3
						l0.1,0.2c0.1,0.3,0.4,0.4,0.7,0.4c0.3,0,0.5-0.2,0.7-0.4c0.3-0.6,0.6-1,0.9-1.3c0.8-0.8,1.8-1.2,2.9-1.2c1,0,1.9,0.3,2.6,0.9
						c1.3,1.1,2,2.5,2,4.2C873.1,333.8,872.8,334.4,872.5,334.9z"/>
				</g>
			</g>
			<g class="st10">
				<g>
					<path class="st9" d="M1082.8,578.2"/>
				</g>
				<g>
					<path class="st9" d="M1063.7,578.2"/>
				</g>
				<g>
					<g>
						<polygon class="st4" points="1057.1,568.9 1073.6,506.2 1090,568.9 						"/>
						<path class="st5" d="M1091.3,569.8h-35.4l17.7-67.4L1091.3,569.8z M1058.4,567.9h30.4l-15.2-58L1058.4,567.9z"/>
					</g>
					<g>
						<line class="st4" x1="1073.4" y1="540.4" x2="1073.4" y2="578.9"/>
						<rect x="1072.5" y="540.4" class="st5" width="1.9" height="38.5"/>
					</g>
					<g>
						<line class="st4" x1="1081.6" y1="553.1" x2="1073.3" y2="561.4"/>
						
							<rect x="1076.5" y="551.4" transform="matrix(0.7071 0.7071 -0.7071 0.7071 709.6049 -598.6365)" class="st5" width="1.9" height="11.7"/>
					</g>
					<g>
						<line class="st4" x1="1068.4" y1="544.2" x2="1073.6" y2="549.4"/>
						
							<rect x="1067.3" y="545.9" transform="matrix(0.7072 0.7071 -0.7071 0.7072 700.2699 -597.131)" class="st5" width="7.4" height="1.9"/>
					</g>
				</g>
			</g>
		</g>
		<g>
			<g>
				<g>
					<path class="st4" d="M614.4,291.2v19.6l12.7,4.8l14.5-4.8c0,0,11.3-3,11.3-9.9c0-6.9,0-21,0-21h-38.5
						C614.4,279.9,614.4,291,614.4,291.2z"/>
				</g>
				<g>
					<path class="st5" d="M627.1,316.6l-13.5-5.2v-32.3h40.2v21.8c0,3.2-2.1,6-6.1,8.3c-2.8,1.6-5.5,2.4-5.8,2.4L627.1,316.6z
						 M615.2,310.3l11.9,4.5l14.3-4.8c0.1,0,10.7-2.9,10.7-9.1v-20.1h-36.8V310.3z"/>
				</g>
			</g>
			<g>
				<g>
					<path class="st4" d="M617.6,291.7h4.8V288c0,0,5.3-0.9,4.7-4.7c-0.6-3.8,13,16.2,29.2-5.4h-4.2c0,0-0.2-16.4-21.4-14.8
						c-21.2,1.6-18.2,23.5-18.2,23.5L617.6,291.7z"/>
				</g>
				<g>
					<path class="st5" d="M623.3,292.5h-6l-5.5-5.5l0-0.3c-0.1-0.4-1.3-10.4,4.5-17.6c3.3-4.1,8.2-6.4,14.5-6.9
						c7.5-0.6,13.3,1,17.2,4.6c4,3.6,4.9,8.3,5.1,10.2h5.1l-1,1.4c-6.1,8.1-11.9,10.6-16.7,10.6c-5.3,0-9.4-2.9-11.7-4.4
						c-0.2-0.1-0.4-0.3-0.6-0.4c-0.2,2.7-2.8,4.1-4.8,4.6V292.5z M618,290.8h3.6v-3.6l0.7-0.1c0.2,0,4.5-0.8,4-3.8
						c-0.1-0.8,0.2-1.1,0.5-1.3c0.7-0.4,1.4,0,2.8,1c4.2,2.9,13.7,9.5,25-4.4h-3.3l0-0.8c0-0.1-0.2-5.7-4.6-9.8
						c-3.6-3.3-8.9-4.7-15.9-4.1c-5.9,0.4-10.4,2.5-13.3,6.2c-4.8,6-4.3,14.4-4.1,16.1L618,290.8z"/>
				</g>
			</g>
			<g>
				<g>
					<path class="st4" d="M615.3,296.8L615.3,296.8c-2.8,0-5.1-2.3-5.1-5.1l0,0c0-2.8,2.3-5.1,5.1-5.1l0,0c2.8,0,5.1,3.1,5.1,5.9"/>
				</g>
				<g>
					<path class="st5" d="M615.3,297.6c-3.3,0-5.9-2.7-5.9-5.9s2.7-5.9,5.9-5.9c3.4,0,5.9,3.6,5.9,6.8h-1.7c0-2.8-2.3-5.1-4.3-5.1
						c-2.3,0-4.2,1.9-4.2,4.2c0,2.3,1.9,4.2,4.2,4.2V297.6z"/>
				</g>
			</g>
			<g class="st6">
				<g>
					<path class="st5" d="M614.6,301.4v9.2l13.4,5.5l12.7-5.5l-12.3,0.7c-1.3,0.1-2.6,0-3.9-0.4c-0.4-0.1-0.7-0.2-1.1-0.3
						c-2.5-0.9-4.6-2.7-6.1-5L614.6,301.4z"/>
				</g>
			</g>
			<g>
				<g>
					<path class="st4" d="M634.5,298.4h8.5C643,298.4,638.4,309.7,634.5,298.4z"/>
				</g>
				<g>
					<path class="st5" d="M638.4,303.8C638.4,303.8,638.4,303.8,638.4,303.8c-1.7,0-3.1-1.8-4.4-5.3l-0.2-0.6h9.8l-0.2,0.6
						C643.3,298.8,641.2,303.8,638.4,303.8z M635.1,298.8c1,2.7,2.2,4.2,3.3,4.2c0,0,0,0,0,0c1.6,0,3.2-2.6,3.9-4.2H635.1z"/>
				</g>
			</g>
			<g class="st6">
				<path class="st5" d="M624,280.7l-2.1,2c-0.7,0.1-3.8-1.4-3.6-2l1.6-6.7c0.1-0.3,4.1-5.4,4.5-5.5c2.5-0.6,12.7-2.8,17.1,0.1
					c4.1,2.7,6.9,8.3,7.8,10.3c0.2,0.4,0.1,0.9-0.3,1.2c-2.4,1.7-11.2,6.9-19.5,1.9c-4.3-2.6-5.3-3.2-5-3.1
					C625.1,279.3,624.9,280.6,624,280.7z"/>
			</g>
		</g>
		<g>
			<g>
				<path class="st5" d="M849.1,301.2c-1-0.8-2.3-1.3-3.6-1.3c-1.5,0-3,0.6-4,1.7c-0.2,0.2-0.4,0.4-0.5,0.6
					c-1.3-1.7-3.4-2.6-5.5-2.2c-1.7,0.3-3.1,1.3-4.1,2.9c-1.4,2.2-1.5,4.4-0.3,6.4c0.6,1.1,1.4,2.1,2.4,3.2c1.9,2,4.1,3.9,6.9,5.9
					c0.2,0.1,0.4,0.2,0.6,0.2c0.3,0,0.5-0.2,0.6-0.2c2.6-1.8,4.6-3.6,6.4-5.4c1-1,2.1-2.3,2.9-3.8c0.4-0.7,0.8-1.6,0.7-2.6
					C851.7,304.4,850.8,302.6,849.1,301.2z M849.6,308.5c-0.7,1.4-1.8,2.5-2.7,3.5c-1.6,1.7-3.5,3.3-5.9,5c-2.6-1.9-4.7-3.7-6.4-5.5
					c-0.9-1-1.6-1.9-2.2-2.9c-0.9-1.5-0.8-3.1,0.3-4.8c0.7-1.2,1.8-1.9,3.1-2.1c0.2,0,0.5-0.1,0.8-0.1c1.5,0,2.9,0.9,3.7,2.3
					l0.1,0.2c0.1,0.3,0.4,0.4,0.7,0.4c0.3,0,0.5-0.2,0.7-0.4c0.3-0.6,0.6-1,0.9-1.3c0.8-0.8,1.8-1.2,2.9-1.2c1,0,1.9,0.3,2.6,0.9
					c1.3,1.1,2,2.5,2,4.2C850.2,307.3,849.9,307.9,849.6,308.5z"/>
			</g>
		</g>
	</g>
	<path class="st5" d="M791,380.1H677.7c-3.7,0-6.7-3-6.7-6.7v0c0-3.7,3-6.7,6.7-6.7H791c3.7,0,6.7,3,6.7,6.7v0
		C797.7,377.1,794.7,380.1,791,380.1z"/>
	<polygon class="st11" points="787.7,574.8 680.3,396.8 680.3,380.1 786.3,380.1 	"/>
	<path class="st4" d="M787.9,375.3H677.5c-0.8,0-1.5-0.7-1.5-1.5v-1c0-0.8,0.7-1.5,1.5-1.5h110.4c0.8,0,1.5,0.7,1.5,1.5v1
		C789.4,374.6,788.8,375.3,787.9,375.3z"/>
</g>
</svg>
