<?xml version="1.0" encoding="utf-8"?>
<!-- Generator: Adobe Illustrator 19.1.0, SVG Export Plug-In . SVG Version: 6.00 Build 0)  -->
<svg version="1.0" id="Layer_1" xmlns="http://www.w3.org/2000/svg" xmlns:xlink="http://www.w3.org/1999/xlink" x="0px" y="0px"
	 viewBox="0 0 182.6 191.9" style="enable-background:new 0 0 182.6 191.9;" xml:space="preserve">
<style type="text/css">
	.st0{fill:#E4087E;}
	.st1{fill:#38A7DF;}
	.st2{fill:#6F2A81;}
	.st3{fill:#05AA9E;}
	.st4{fill:#F7B132;}
	.st5{fill:#1F71B7;}
	.st6{fill:#63884B;}
	.st7{fill:#0762AC;}
	.st8{fill:#FFFFFF;}
</style>
<g>
	<path class="st0" d="M64.5,170.6c0,2.9-2.4,5.3-5.3,5.3c-2.9,0-5.3-2.4-5.3-5.3c0-2.9,2.4-5.3,5.3-5.3
		C62.1,165.3,64.5,167.6,64.5,170.6"/>
	<path class="st1" d="M128.3,102.3c0,22.8-18.5,41.3-41.3,41.3c-22.8,0-41.3-18.5-41.3-41.3C45.8,79.5,64.3,61,87.1,61
		C109.9,61,128.3,79.5,128.3,102.3"/>
	<path class="st0" d="M54.2,44.6c-10.5,0-18.9,8.5-18.9,18.9c0,9.4,6.8,17.1,15.7,18.7c4.8-8.7,12.7-15.4,22.2-18.8
		C73.1,53,64.7,44.6,54.2,44.6"/>
	<path class="st2" d="M73.2,63.4C63.7,66.8,55.8,73.6,51,82.2c1,0.2,2.1,0.3,3.2,0.3c10.5,0,18.9-8.5,18.9-18.9
		C73.2,63.5,73.2,63.5,73.2,63.4"/>
	<path class="st3" d="M109.4,39.1c0,8.1-6.6,14.7-14.7,14.7s-14.7-6.6-14.7-14.7c0-8.1,6.6-14.7,14.7-14.7S109.4,31,109.4,39.1"/>
	<path class="st0" d="M26.4,66.5c0,3-2.5,5.5-5.5,5.5s-5.5-2.5-5.5-5.5c0-3,2.5-5.5,5.5-5.5S26.4,63.5,26.4,66.5"/>
	<path class="st4" d="M122.9,9.7c-6.3,0-11.4,5.1-11.4,11.4c0,6.3,5.1,11.4,11.4,11.4c6.3,0,11.4-5.1,11.4-11.4
		C134.2,14.8,129.1,9.7,122.9,9.7"/>
	<path class="st3" d="M171.4,92.4c0,3.6-2.9,6.5-6.5,6.5c-3.6,0-6.5-2.9-6.5-6.5c0-3.6,2.9-6.5,6.5-6.5
		C168.5,85.8,171.4,88.7,171.4,92.4"/>
	<path class="st3" d="M105.6,165.3c0,8.2-6.6,14.8-14.8,14.8c-8.2,0-14.8-6.6-14.8-14.8s6.6-14.8,14.8-14.8
		C99,150.5,105.6,157.1,105.6,165.3"/>
	<path class="st5" d="M129.2,149.4c0,5.1-4.1,9.3-9.3,9.3c-5.1,0-9.3-4.1-9.3-9.3c0-5.1,4.1-9.3,9.3-9.3
		C125,140.2,129.2,144.3,129.2,149.4"/>
	<path class="st4" d="M144,96.4c-6.2,0-11.8,2.6-15.7,6.8c-0.2,7-2.1,13.5-5.3,19.2c2.1,9.6,10.7,16.9,21,16.9
		c11.9,0,21.5-9.6,21.5-21.5C165.5,106,155.9,96.4,144,96.4"/>
	<path class="st6" d="M128.3,103.3c-3.6,3.8-5.8,9-5.8,14.6c0,1.6,0.2,3.1,0.5,4.6C126.3,116.8,128.2,110.2,128.3,103.3"/>
	<path class="st4" d="M42,90.5c0,6.7-5.5,12.2-12.2,12.2c-6.7,0-12.2-5.5-12.2-12.2c0-6.7,5.5-12.2,12.2-12.2
		C36.6,78.3,42,83.8,42,90.5"/>
	<path class="st5" d="M42.7,112.8c-14,0-25.3,11.3-25.3,25.3c0,14,11.3,25.3,25.3,25.3c13.7,0,24.8-10.8,25.2-24.4
		c-10.1-5.3-17.7-14.5-20.7-25.7C45.8,112.9,44.3,112.8,42.7,112.8"/>
	<path class="st7" d="M47.3,113.2c3,11.2,10.7,20.5,20.7,25.7c0-0.3,0-0.6,0-0.9C68,125.6,59,115.3,47.3,113.2"/>
	<path class="st0" d="M167.4,58.6c0,13.9-11.3,25.2-25.2,25.2c-13.9,0-25.2-11.3-25.2-25.2c0-13.9,11.3-25.2,25.2-25.2
		C156.1,33.4,167.4,44.7,167.4,58.6"/>
	<path class="st8" d="M65.8,87.6c6.6,0,10.1,3.8,10.1,3.8l-3,5c0,0-3-2.7-6.7-2.7c-5.1,0-7.6,3.8-7.6,7.7c0,4,2.6,8.1,7.6,8.1
		c4.1,0,7.1-3.3,7.1-3.3l3.4,4.8c0,0-3.8,4.5-10.8,4.5c-8.4,0-14.1-6-14.1-13.9C51.7,93.6,57.7,87.6,65.8,87.6"/>
	<path class="st8" d="M77.8,88.1H89c5.2,0,8.7,3.8,8.7,9.2c0,5.4-3.5,9.3-8.7,9.3h-4.6v8.3h-6.6V88.1z M87.6,101
		c2.3,0,3.4-1.5,3.4-3.7c0-2.1-1.1-3.6-3.3-3.6h-3.3v7.3H87.6z"/>
	<path class="st8" d="M99.1,88.1h9.5c8.4,0,13.9,4.9,13.9,13.4c0,8.4-5.4,13.5-13.9,13.5h-9.5V88.1z M108.3,109.3
		c4.5,0,7.3-2.7,7.3-7.8c0-5.1-2.9-7.7-7.3-7.7h-2.7v15.6H108.3z"/>
</g>
</svg>
